<svg width="32" height="32" viewBox="0 0 32 32" fill="none" xmlns="http://www.w3.org/2000/svg">
<g clip-path="url(#clip0_11879_2064)">
<path d="M15.9844 0.0281372C7.16875 0.0281372 0 7.19689 0 16.0125C0 24.825 7.16875 31.9969 15.9844 31.9969C24.8 31.9969 31.9688 24.825 31.9688 16.0125C31.9656 7.19689 24.7969 0.0281372 15.9844 0.0281372ZM15.9844 29.9969C8.26562 29.9906 2.00625 23.7344 2 16.0125C2.00625 8.29064 8.2625 2.03439 15.9844 2.02814C23.7031 2.03439 29.9625 8.29064 29.9688 16.0125C29.9594 23.7313 23.7031 29.9875 15.9844 29.9969ZM22.5094 15.0844H11.7L16.0594 10.725C16.4219 10.3625 16.4219 9.77189 16.0594 9.41251C15.6969 9.05001 15.1062 9.05001 14.7469 9.41251L8.8125 15.3438C8.80937 15.3469 8.80313 15.35 8.8 15.3531C8.79375 15.3594 8.7875 15.3688 8.78125 15.3781C8.73438 15.4281 8.69375 15.4844 8.65938 15.5438L8.63125 15.6C8.6 15.6656 8.575 15.7313 8.55625 15.8C8.55625 15.8031 8.55313 15.8063 8.55313 15.8094C8.55313 15.8156 8.55 15.8219 8.54688 15.8281V15.8313C8.5375 15.8844 8.53125 15.9375 8.53125 15.9906C8.53125 15.9969 8.52812 16.0063 8.52812 16.0125C8.52812 16.075 8.53438 16.1375 8.54688 16.1969C8.54688 16.2031 8.55 16.2094 8.55313 16.2156C8.59063 16.3813 8.67188 16.5406 8.8 16.6719C8.80313 16.675 8.80937 16.6781 8.8125 16.6813L14.7469 22.6156C15.1094 22.9781 15.7 22.9781 16.0625 22.6156C16.425 22.2531 16.425 21.6625 16.0625 21.3L11.7 16.9406H22.5063C23.0188 16.9406 23.4344 16.5219 23.4344 16.0125C23.4344 15.5031 23.0187 15.0844 22.5094 15.0844Z" fill="url(#paint0_linear_11879_2064)"/>
</g>
<defs>
<linearGradient id="paint0_linear_11879_2064" x1="15.9844" y1="0.0281372" x2="15.9844" y2="31.9969" gradientUnits="userSpaceOnUse">
<stop stop-color="#D8A98A"/>
<stop offset="1" stop-color="#7A4427"/>
</linearGradient>
<clipPath id="clip0_11879_2064">
<rect width="32" height="32" fill="white"/>
</clipPath>
</defs>
</svg>
