
<svg width="24" height="25" viewBox="0 0 24 25" fill="none" xmlns="http://www.w3.org/2000/svg">
<rect y="0.800049" width="24" height="24" rx="12" fill="#293033"/>
<rect width="16" height="8.25806" transform="translate(4 8.80005)" fill="#293033"/>
<path fill-rule="evenodd" clip-rule="evenodd" d="M19.0024 15.3943C18.9154 15.3947 18.8284 15.395 18.7414 15.3946C18.1812 15.3922 17.6615 14.9272 17.668 14.4351C17.6745 13.9242 18.1792 13.4765 18.7449 13.479C18.8212 13.4794 18.8976 13.4812 18.974 13.4829C19.1547 13.487 19.3354 13.4912 19.5149 13.478C19.8639 13.4518 19.973 13.2978 19.989 12.8279C20.0016 12.4587 19.8223 12.3012 19.4779 12.2884C19.3933 12.2853 19.3083 12.2835 19.2232 12.2817C18.9591 12.276 18.6942 12.2704 18.437 12.2252C18.0204 12.1527 17.679 11.7232 17.6695 11.3417C17.6605 10.9803 17.9809 10.5716 18.3964 10.464C18.5902 10.4137 18.802 10.4107 19.0047 10.4147C19.0433 10.4154 19.0806 10.4161 19.1167 10.4169C19.8161 10.4318 20.0402 10.4366 19.9931 9.37712C19.974 8.9467 19.8158 8.80218 19.3777 8.80119C18.3909 8.79921 17.4041 8.8002 16.4173 8.80119C16.4022 8.80119 16.3876 8.80136 16.3734 8.80119C16.3461 8.80086 16.3202 8.80021 16.2952 8.80119H14.6189C14.3241 8.80218 14.1588 8.94768 14.1513 9.23299C14.1443 9.51494 14.1459 9.79689 14.1475 10.0788C14.1481 10.1997 14.1488 10.3205 14.1488 10.4413L14.1158 11.4438C14.1053 11.8057 13.9756 11.9602 13.6136 12.0041C13.183 12.0564 12.8867 11.937 12.8536 11.4962C12.852 11.474 12.8474 11.452 12.8428 11.4301C12.8377 11.4056 12.8326 11.3812 12.8316 11.3565C12.8161 11.0453 12.801 10.7341 12.7859 10.4229C12.7668 10.0303 12.7478 9.63774 12.7279 9.24533C12.7139 8.96496 12.5462 8.80366 12.2643 8.80119C12.0976 8.79971 11.9309 8.8002 11.7637 8.80119C11.4538 8.80267 11.3051 8.93288 11.2805 9.2394C11.2633 9.45541 11.2534 9.67184 11.2434 9.88828C11.2382 9.99976 11.2331 10.1112 11.227 10.2227C11.2209 10.3351 11.2153 10.4475 11.2098 10.5599C11.1947 10.8652 11.1796 11.1705 11.1544 11.4749C11.1253 11.8269 10.9796 11.9833 10.6347 12.009C10.152 12.0451 9.88969 11.9078 9.88569 11.3846C9.88279 11.0302 9.87617 10.6757 9.86955 10.3213C9.86587 10.1244 9.86219 9.92747 9.85915 9.73054C9.85806 9.6635 9.85875 9.59646 9.85945 9.52942C9.86003 9.47355 9.86061 9.41768 9.86015 9.36182C9.86015 9.35861 9.8604 9.35552 9.86065 9.35244C9.8609 9.34935 9.86115 9.34627 9.86115 9.34306C9.86115 9.3248 9.86015 9.30653 9.85815 9.28876C9.85815 9.27149 9.85765 9.25421 9.85665 9.23694C9.84513 8.98865 9.69393 8.80662 9.46763 8.80119C9.45413 8.80094 9.44064 8.80107 9.42708 8.80119C9.41348 8.80131 9.38602 8.80119 9.38602 8.80119C9.39416 8.80119 9.39459 8.80119 9.38602 8.80119H4.55063C4.54206 8.80119 4.5343 8.80119 4.52659 8.80119C4.51132 8.80119 4.49625 8.80118 4.47553 8.80119C4.46174 8.80144 4.44808 8.80131 4.43448 8.80119C4.42092 8.80107 4.40742 8.80094 4.39392 8.80119C4.16762 8.80662 4.01292 8.98819 4.0014 9.23652C4.0004 9.2538 4.0004 9.49328 4.0004 9.49328L4 16.3743L4.0004 16.4745C4.0004 16.4918 4.0004 16.5624 4.0014 16.5797C4.01291 16.828 4.16762 17.0107 4.39392 17.0161C4.40742 17.0164 4.42554 17.0162 4.44373 17.0161C4.46197 17.016 4.48027 17.0159 4.49406 17.0161L5.55701 17.0162C5.86237 17.0152 6.02356 16.8562 6.03608 16.5556C6.03754 16.5203 6.03872 16.4849 6.0399 16.4496C6.04399 16.3274 6.04808 16.2052 6.06361 16.0842C6.11318 15.7042 6.31322 15.5063 6.69473 15.4624C6.85953 15.445 7.02769 15.4442 7.18951 15.4628C7.57102 15.5067 7.74675 15.7041 7.79632 16.0842C7.81185 16.2052 7.81594 16.3274 7.82003 16.4496C7.82121 16.4849 7.82239 16.5203 7.82385 16.5556C7.83637 16.8562 7.99758 17.0137 8.30299 17.0147C8.70652 17.0161 9.03756 17.0171 9.4411 17.0147H9.58929C9.58929 17.0147 10.3578 17.0166 10.7418 17.0147C11.0047 17.0132 11.1894 16.8394 11.2079 16.5887C11.2273 16.3233 11.2433 16.0578 11.2592 15.7922C11.2763 15.5084 11.2934 15.2246 11.3146 14.941C11.3165 14.9152 11.3184 14.8893 11.3204 14.8633C11.3391 14.6098 11.3579 14.3542 11.4147 14.1083C11.5063 13.7139 11.8643 13.5278 12.2263 13.6581C12.4771 13.7485 12.5908 13.9568 12.6278 14.1942C12.674 14.4893 12.6976 14.7881 12.7212 15.086C12.7234 15.1145 12.7257 15.143 12.7279 15.1715C12.7452 15.387 12.7596 15.6028 12.774 15.8185C12.7906 16.0672 12.8072 16.316 12.8281 16.5645C12.8526 16.8547 13.0193 17.0137 13.3192 17.0147C13.4755 17.0153 13.6319 17.0151 13.7883 17.0149C13.8664 17.0148 13.9446 17.0147 14.0227 17.0147H17.0697C17.3314 17.0147 17.593 17.0149 17.8547 17.0152C18.3781 17.0158 18.9014 17.0163 19.4248 17.0147C19.7913 17.0137 19.915 16.9066 19.969 16.5591C20.0046 16.332 20.0106 16.0926 19.9815 15.8646C19.938 15.519 19.7778 15.4011 19.4198 15.3951V15.3956C19.2805 15.3932 19.1415 15.3938 19.0024 15.3943ZM6.71948 13.48C6.47966 13.4138 6.32546 13.2613 6.26488 13.0263C6.19629 12.7583 6.19729 12.4883 6.34598 12.245C6.49818 11.9962 6.79658 11.9014 7.12151 11.9755C7.37434 12.0332 7.55308 12.2366 7.59464 12.5174C7.60163 12.5641 7.60508 12.6114 7.60853 12.6586C7.61026 12.6824 7.61198 12.7061 7.61416 12.7297C7.63919 13.3738 7.12251 13.5915 6.71948 13.4805V13.48Z" fill="#E0E0E0"/>
</svg>
