<svg width="32" height="32" viewBox="0 0 32 32" fill="none" xmlns="http://www.w3.org/2000/svg">
<path d="M14.855 16.372C15.565 16.7819 15.9201 16.9868 16.3099 16.9871C16.6998 16.9875 17.0552 16.7832 17.766 16.3746L22.2968 13.7702C22.5013 13.6526 22.6274 13.4347 22.6274 13.1988C22.6274 12.9628 22.5013 12.7449 22.2968 12.6273L17.7644 10.022C17.0543 9.61383 16.6994 9.40976 16.3098 9.40991C15.9203 9.41006 15.5655 9.61441 14.8558 10.0231L10.9594 12.2669C10.9306 12.2835 10.9161 12.2918 10.9027 12.2997C9.5717 13.0788 8.74939 14.5013 8.73839 16.0435C8.73828 16.0591 8.73828 16.0758 8.73828 16.1091C8.73828 16.1424 8.73828 16.159 8.73839 16.1746C8.74936 17.7151 9.56984 19.1362 10.8984 19.9159C10.9119 19.9238 10.9263 19.9322 10.9551 19.9488L13.3958 21.358C14.8179 22.1791 15.529 22.5896 16.3099 22.5899C17.0908 22.5902 17.8021 22.1801 19.2249 21.3599L21.8013 19.8747C22.5137 19.464 22.8699 19.2587 23.0655 18.9202C23.2611 18.5816 23.2611 18.1705 23.2611 17.3482V15.7597C23.2611 15.5316 23.1375 15.3214 22.9382 15.2104C22.7454 15.103 22.5103 15.1046 22.3189 15.2146L17.0359 18.2515C16.6814 18.4552 16.5042 18.5571 16.3097 18.5572C16.1152 18.5572 15.9379 18.4554 15.5834 18.2519L12.0077 16.1994C11.8286 16.0966 11.739 16.0451 11.6671 16.0359C11.5031 16.0147 11.3454 16.1066 11.2829 16.2597C11.2555 16.3268 11.2561 16.4301 11.2572 16.6366C11.258 16.7886 11.2584 16.8647 11.2726 16.9346C11.3044 17.0912 11.3868 17.233 11.5071 17.3382C11.5608 17.3851 11.6267 17.4232 11.7583 17.4992L15.5814 19.7056C15.9368 19.9108 16.1146 20.0134 16.3098 20.0135C16.505 20.0135 16.6828 19.911 17.0384 19.706L21.7243 17.0049C21.8457 16.9349 21.9065 16.8999 21.952 16.9262C21.9975 16.9525 21.9975 17.0226 21.9975 17.1628V17.8833C21.9975 18.0889 21.9975 18.1917 21.9486 18.2763C21.8997 18.3609 21.8107 18.4123 21.6326 18.515L17.7676 20.7428C17.0561 21.153 16.7004 21.3581 16.3099 21.3579C15.9193 21.3577 15.5638 21.1523 14.8526 20.7415L11.2367 18.6527C11.2252 18.6461 11.2194 18.6428 11.2141 18.6396C10.4559 18.1966 9.98807 17.3861 9.98368 16.508C9.98365 16.5018 9.98365 16.4951 9.98365 16.4819V15.8205C9.98365 15.3357 10.2418 14.8876 10.6612 14.6445C11.0318 14.4297 11.4889 14.4293 11.86 14.6434L14.855 16.372Z" stroke="#F5F3FF" stroke-width="0.453837"/>
</svg>
