<svg width="37" height="16" viewBox="0 0 37 16" fill="none" xmlns="http://www.w3.org/2000/svg">
<path d="M2.77243 3.88465C3.29256 1.61169 5.31473 0 7.64644 0H34.4906C35.7753 0 36.7268 1.19385 36.4402 2.44614L34.2276 12.1153C33.7074 14.3883 31.6853 16 29.3536 16H2.50937C1.2247 16 0.273196 14.8062 0.559765 13.5539L2.77243 3.88465Z" fill="url(#paint0_linear_12755_1990)"/>
<path d="M11.6797 4.07227H14.0117L14.0586 4.57031L13.2324 4.6875L12.2012 12H10.5195L7.68359 4.86328H7.58984L6.66992 11.3848L7.49609 11.502L7.39648 12H5.07031L5.02344 11.502L5.84961 11.3848L6.79297 4.6875L5.9668 4.57031L6.06641 4.07227H8.5625L11.3984 11.2031H11.4922L12.4062 4.6875L11.5801 4.57031L11.6797 4.07227ZM15.9779 8.14453L15.515 11.4199H18.5091L19.1244 10.2305L19.5931 10.3066L19.2064 12H13.6283L13.5814 11.502L14.4076 11.3848L15.3509 4.6875L14.5248 4.57031L14.6244 4.07227H20.1498L20.0384 5.83008H19.5345L19.3002 4.65234H16.4701L16.0599 7.56445H18.3216L18.556 6.76172L19.0423 6.87891L18.7377 8.95898L18.2279 8.98828V8.14453H15.9779ZM20.3757 4.07227H22.8191L22.8659 4.57031L22.0398 4.6875L23.2116 10.6406H23.3054L26.2351 4.07227H27.3542L28.3855 10.6406H28.4792L31.1394 4.6875L30.3132 4.57031L30.4128 4.07227H32.6042L32.6511 4.57031L32.0007 4.6875L28.6667 12H27.5476L26.5105 5.51367H26.4167L23.528 12H22.403L20.9206 4.6875L20.2761 4.57031L20.3757 4.07227Z" fill="black"/>
<defs>
<linearGradient id="paint0_linear_12755_1990" x1="0" y1="8" x2="37" y2="8" gradientUnits="userSpaceOnUse">
<stop stop-color="#C5F87E"/>
<stop offset="1" stop-color="#46B6E7"/>
</linearGradient>
</defs>
</svg>
