<svg width="140" height="20" viewBox="0 0 140 20" fill="none" xmlns="http://www.w3.org/2000/svg">
<g clip-path="url(#clip0_500_764)">
<path d="M84.089 18.1558V18.9277C84.264 18.9277 84.4197 18.8701 84.5497 18.7664V17.9945C84.4197 18.104 84.264 18.1558 84.089 18.1558ZM84.5497 17.9945V18.7664C84.6733 18.6512 84.7376 18.5129 84.7376 18.3517V17.5798C84.7376 17.7411 84.6733 17.8793 84.5497 17.9945ZM82.1426 17.0037V17.7757V18.3517V17.5798V17.0037ZM82.1426 17.5798V18.3517C82.1426 18.5129 82.2011 18.6512 82.324 18.7664V17.9945C82.2011 17.8793 82.1426 17.7411 82.1426 17.5798ZM82.324 17.9945V18.7664C82.454 18.8701 82.6097 18.9277 82.7911 18.9277V18.1558C82.6097 18.1558 82.454 18.104 82.324 17.9945ZM82.7911 18.1558V18.9277H84.089V18.1558H82.7911ZM84.089 18.1558C84.264 18.1558 84.4197 18.104 84.5497 17.9945C84.6733 17.8793 84.7376 17.7411 84.7376 17.5798V17.0037C84.7376 16.8482 84.6733 16.7099 84.5497 16.6005C84.4197 16.4853 84.264 16.4277 84.089 16.4277H82.7911C82.6097 16.4277 82.454 16.4853 82.324 16.6005C82.2011 16.7099 82.1426 16.8482 82.1426 17.0037V17.5798C82.1426 17.7411 82.2011 17.8793 82.324 17.9945C82.454 18.104 82.6097 18.1558 82.7911 18.1558H84.089Z" fill="#43414D"/>
<path d="M84.089 18.1558V18.9277M84.089 18.1558C84.264 18.1558 84.4197 18.104 84.5497 17.9945M84.089 18.1558H82.7911M84.089 18.9277C84.264 18.9277 84.4197 18.8701 84.5497 18.7664M84.089 18.9277H82.7911M84.5497 17.9945V18.7664M84.5497 17.9945C84.6733 17.8793 84.7376 17.7411 84.7376 17.5798M82.7911 18.1558C82.6097 18.1558 82.454 18.104 82.324 17.9945M82.7911 18.1558V18.9277M84.5497 18.7664C84.6733 18.6512 84.7376 18.5129 84.7376 18.3517V17.5798M82.7911 18.9277C82.6097 18.9277 82.454 18.8701 82.324 18.7664M84.7376 17.5798V17.0037C84.7376 16.8482 84.6733 16.7099 84.5497 16.6005C84.4197 16.4853 84.264 16.4277 84.089 16.4277H82.7911C82.6097 16.4277 82.454 16.4853 82.324 16.6005C82.2011 16.7099 82.1426 16.8482 82.1426 17.0037M82.1426 17.0037V17.7757V18.3517M82.1426 17.0037V17.5798M82.1426 18.3517V17.5798M82.1426 18.3517C82.1426 18.5129 82.2011 18.6512 82.324 18.7664M82.1426 17.5798C82.1426 17.7411 82.2011 17.8793 82.324 17.9945M82.324 18.7664V17.9945" stroke="#43414D" stroke-width="3" stroke-linecap="round" stroke-linejoin="round"/>
<path d="M82.7911 18.1558C82.6097 18.1558 82.454 18.104 82.324 17.9945C82.2011 17.8793 82.1426 17.7411 82.1426 17.5798V17.0037C82.1426 16.8482 82.2011 16.7099 82.324 16.6005C82.454 16.4853 82.6097 16.4277 82.7911 16.4277H84.089C84.264 16.4277 84.4197 16.4853 84.5497 16.6005C84.6733 16.7099 84.7376 16.8482 84.7376 17.0037V17.5798C84.7376 17.7411 84.6733 17.8793 84.5497 17.9945C84.4197 18.104 84.264 18.1558 84.089 18.1558H82.7911Z" fill="#F5F3FF"/>
<path d="M93.8653 16.5449V18.5706C94.1896 18.5706 94.4774 18.4194 94.706 18.1473V16.1216C94.4774 16.4088 94.1896 16.5449 93.8653 16.5449ZM94.706 16.1216V18.1473C94.946 17.845 95.0667 17.4822 95.0667 17.0589V15.0332C95.0667 15.4565 94.946 15.8193 94.706 16.1216ZM95.0667 15.0332V17.0589V14.0355V12.0098V15.0332ZM95.0667 12.0098V14.0355C95.0667 13.6122 95.1746 13.2645 95.4031 12.9773V10.9515C95.1746 11.2388 95.0667 11.6016 95.0667 12.0098ZM95.4031 10.9515V12.9773C95.6431 12.6749 95.9317 12.5238 96.2681 12.5238V10.498C95.9317 10.498 95.6431 10.6492 95.4031 10.9515ZM96.2681 10.498V12.5238H101.074V10.498H96.2681ZM101.074 10.498V12.5238C101.398 12.5238 101.687 12.3725 101.915 12.1005V10.0748C101.687 10.362 101.398 10.498 101.074 10.498ZM101.915 10.0748V12.1005C102.155 11.7981 102.275 11.4353 102.275 11.012V8.98633C102.275 9.40961 102.155 9.7724 101.915 10.0748ZM92.6631 5.96288V7.98861C92.6631 7.56533 92.7717 7.21761 92.9996 6.93038V4.90468C92.7717 5.19191 92.6631 5.55472 92.6631 5.96288ZM92.9996 4.90468V6.93038C93.2403 6.62803 93.5288 6.47686 93.8653 6.47686V4.45116C93.5288 4.45116 93.2403 4.60233 92.9996 4.90468ZM93.8653 4.45116V6.47686H101.074V4.45116H93.8653ZM101.074 4.45116V6.47686C101.398 6.47686 101.687 6.32569 101.915 6.05358V4.02788C101.687 4.31511 101.398 4.45116 101.074 4.45116ZM101.915 4.02788V6.05358C102.155 5.75124 102.275 5.38843 102.275 4.96515V2.93945C102.275 3.36273 102.155 3.72554 101.915 4.02788ZM87.8574 8.98633V11.012C87.8574 11.4353 87.9653 11.7981 88.1939 12.1005V10.0748C87.9653 9.7724 87.8574 9.40961 87.8574 8.98633ZM88.1939 10.0748V12.1005C88.4339 12.3725 88.7224 12.5238 89.0588 12.5238V10.498C88.7224 10.498 88.4339 10.362 88.1939 10.0748ZM89.0588 10.498V12.5238C89.3831 12.5238 89.6717 12.6749 89.9003 12.9773V10.9515C89.6717 10.6492 89.3831 10.498 89.0588 10.498ZM89.9003 10.9515V12.9773C90.1403 13.2645 90.2603 13.6122 90.2603 14.0355V12.0098C90.2603 11.6016 90.1403 11.2388 89.9003 10.9515ZM90.2603 15.0332V17.0589C90.2603 17.4822 90.3688 17.845 90.5967 18.1473V16.1216C90.3688 15.8193 90.2603 15.4565 90.2603 15.0332ZM90.5967 16.1216V18.1473C90.8374 18.4194 91.1253 18.5706 91.4617 18.5706V16.5449C91.1253 16.5449 90.8374 16.4088 90.5967 16.1216ZM91.4617 16.5449V18.5706H93.8653V16.5449H91.4617ZM93.8653 16.5449C94.1896 16.5449 94.4774 16.4088 94.706 16.1216C94.946 15.8193 95.0667 15.4565 95.0667 15.0332V12.0098C95.0667 11.6016 95.1746 11.2388 95.4031 10.9515C95.6431 10.6492 95.9317 10.498 96.2681 10.498H101.074C101.398 10.498 101.687 10.362 101.915 10.0748C102.155 9.7724 102.275 9.40961 102.275 8.98633C102.275 8.57818 102.155 8.21533 101.915 7.92811C101.687 7.62576 101.398 7.47461 101.074 7.47461H93.8653C93.5288 7.47461 93.2403 7.33854 92.9996 7.05131C92.7717 6.74897 92.6631 6.38616 92.6631 5.96288C92.6631 5.55472 92.7717 5.19191 92.9996 4.90468C93.2403 4.60233 93.5288 4.45116 93.8653 4.45116H101.074C101.398 4.45116 101.687 4.31511 101.915 4.02788C102.155 3.72554 102.275 3.36273 102.275 2.93945C102.275 2.53128 102.155 2.16848 101.915 1.88125C101.687 1.57891 101.398 1.42773 101.074 1.42773H92.6631C92.0024 1.42773 91.426 1.73008 90.9574 2.31965C90.4888 2.90921 90.2603 3.61972 90.2603 4.45116V5.96288C90.2603 6.38616 90.1403 6.74897 89.9003 7.05131C89.6717 7.33854 89.3831 7.47461 89.0588 7.47461C88.7224 7.47461 88.4339 7.62576 88.1939 7.92811C87.9653 8.21533 87.8574 8.57818 87.8574 8.98633C87.8574 9.40961 87.9653 9.7724 88.1939 10.0748C88.4339 10.362 88.7224 10.498 89.0588 10.498C89.3831 10.498 89.6717 10.6492 89.9003 10.9515C90.1403 11.2388 90.2603 11.6016 90.2603 12.0098V15.0332C90.2603 15.4565 90.3688 15.8193 90.5967 16.1216C90.8374 16.4088 91.1253 16.5449 91.4617 16.5449H93.8653ZM117.895 16.5449V18.5706C118.544 18.5706 119.109 18.2683 119.59 17.6938V15.6681C119.109 16.2577 118.544 16.5449 117.895 16.5449ZM119.59 15.6681V17.6938C120.058 17.1043 120.298 16.3938 120.298 15.5472V13.5215C120.298 14.368 120.058 15.0785 119.59 15.6681ZM115.492 5.99311V8.01883V12.5238V10.498V5.99311ZM103.477 5.99311V8.01883V15.5472V13.5215V5.99311ZM103.477 13.5215V15.5472C103.477 16.3786 103.705 17.0891 104.174 17.6938V15.6681C103.705 15.0785 103.477 14.3529 103.477 13.5215ZM104.174 15.6681V17.6938C104.642 18.2683 105.207 18.5706 105.88 18.5706V16.5449C105.207 16.5449 104.642 16.2577 104.174 15.6681ZM105.88 16.5449V18.5706H117.895V16.5449H105.88ZM117.895 16.5449C118.544 16.5449 119.109 16.2577 119.59 15.6681C120.058 15.0785 120.298 14.368 120.298 13.5215V5.96288C120.298 5.55472 120.178 5.19191 119.937 4.90468C119.71 4.60233 119.421 4.45116 119.097 4.45116H116.694C116.357 4.45116 116.069 4.60233 115.829 4.90468C115.6 5.19191 115.492 5.55472 115.492 5.99311V10.498C115.492 10.9213 115.372 11.2841 115.132 11.5865C114.903 11.8737 114.615 12.0098 114.291 12.0098H109.485C109.148 12.0098 108.86 11.8737 108.62 11.5865C108.391 11.2841 108.283 10.9213 108.283 10.498V5.96288C108.283 5.55472 108.163 5.19191 107.922 4.90468C107.695 4.60233 107.406 4.45116 107.082 4.45116H104.679C104.342 4.45116 104.054 4.60233 103.813 4.90468C103.585 5.19191 103.477 5.55472 103.477 5.99311V13.5215C103.477 14.3529 103.705 15.0785 104.174 15.6681C104.642 16.2577 105.207 16.5449 105.88 16.5449H117.895ZM125.105 16.5449V18.5706C125.429 18.5706 125.717 18.4194 125.945 18.1473V16.1216C125.717 16.4088 125.429 16.5449 125.105 16.5449ZM125.945 16.1216V18.1473C126.185 17.845 126.306 17.4822 126.306 17.0589V15.0332C126.306 15.4565 126.185 15.8193 125.945 16.1216ZM126.306 10.498V12.5238C126.306 12.1005 126.414 11.7528 126.642 11.4655V9.43983C126.414 9.72704 126.306 10.0899 126.306 10.498ZM126.642 9.43983V11.4655C126.882 11.1632 127.171 11.012 127.507 11.012V8.98633C127.171 8.98633 126.882 9.13747 126.642 9.43983ZM127.507 8.98633V11.012H132.313V8.98633H127.507ZM132.313 8.98633V11.012C132.637 11.012 132.926 11.1632 133.155 11.4655V9.43983C132.926 9.13747 132.637 8.98633 132.313 8.98633ZM133.155 9.43983V11.4655C133.395 11.7528 133.515 12.1005 133.515 12.5238V10.498C133.515 10.0899 133.395 9.72704 133.155 9.43983ZM133.515 10.498V12.5238V17.0589V15.0332V10.498ZM133.515 15.0332V17.0589C133.515 17.4822 133.623 17.845 133.851 18.1473V16.1216C133.623 15.8193 133.515 15.4565 133.515 15.0332ZM133.851 16.1216V18.1473C134.092 18.4194 134.38 18.5706 134.716 18.5706V16.5449C134.38 16.5449 134.092 16.4088 133.851 16.1216ZM134.716 16.5449V18.5706H137.12V16.5449H134.716ZM137.12 16.5449V18.5706C137.444 18.5706 137.732 18.4194 137.96 18.1473V16.1216C137.732 16.4088 137.444 16.5449 137.12 16.5449ZM137.96 16.1216V18.1473C138.201 17.845 138.321 17.4822 138.321 17.0589V15.0332C138.321 15.4565 138.201 15.8193 137.96 16.1216ZM121.5 7.47461V9.50033V17.0589V15.0332V7.47461ZM121.5 15.0332V17.0589C121.5 17.4822 121.608 17.845 121.836 18.1473V16.1216C121.608 15.8193 121.5 15.4565 121.5 15.0332ZM121.836 16.1216V18.1473C122.077 18.4194 122.365 18.5706 122.701 18.5706V16.5449C122.365 16.5449 122.077 16.4088 121.836 16.1216ZM122.701 16.5449V18.5706H125.105V16.5449H122.701ZM125.105 16.5449C125.429 16.5449 125.717 16.4088 125.945 16.1216C126.185 15.8193 126.306 15.4565 126.306 15.0332V10.498C126.306 10.0899 126.414 9.72704 126.642 9.43983C126.882 9.13747 127.171 8.98633 127.507 8.98633H132.313C132.637 8.98633 132.926 9.13747 133.155 9.43983C133.395 9.72704 133.515 10.0899 133.515 10.498V15.0332C133.515 15.4565 133.623 15.8193 133.851 16.1216C134.092 16.4088 134.38 16.5449 134.716 16.5449H137.12C137.444 16.5449 137.732 16.4088 137.96 16.1216C138.201 15.8193 138.321 15.4565 138.321 15.0332V7.47461C138.321 6.65827 138.08 5.94776 137.612 5.34308C137.143 4.75351 136.579 4.45116 135.918 4.45116H123.902C123.242 4.45116 122.665 4.75351 122.197 5.34308C121.728 5.93265 121.5 6.64316 121.5 7.47461V15.0332C121.5 15.4565 121.608 15.8193 121.836 16.1216C122.077 16.4088 122.365 16.5449 122.701 16.5449H125.105Z" fill="#43414D"/>
<path d="M93.8653 16.5449V18.5706M93.8653 16.5449C94.1896 16.5449 94.4774 16.4088 94.706 16.1216M93.8653 16.5449H91.4617M93.8653 18.5706C94.1896 18.5706 94.4774 18.4194 94.706 18.1473M93.8653 18.5706H91.4617M94.706 16.1216V18.1473M94.706 16.1216C94.946 15.8193 95.0667 15.4565 95.0667 15.0332M91.4617 16.5449C91.1253 16.5449 90.8374 16.4088 90.5967 16.1216M91.4617 16.5449V18.5706M94.706 18.1473C94.946 17.845 95.0667 17.4822 95.0667 17.0589M91.4617 18.5706C91.1253 18.5706 90.8374 18.4194 90.5967 18.1473M95.0667 17.0589V15.0332M95.0667 17.0589V14.0355M95.0667 15.0332V12.0098M95.0667 14.0355V12.0098M95.0667 14.0355C95.0667 13.6122 95.1746 13.2645 95.4031 12.9773M95.0667 12.0098C95.0667 11.6016 95.1746 11.2388 95.4031 10.9515M95.4031 12.9773V10.9515M95.4031 12.9773C95.6431 12.6749 95.9317 12.5238 96.2681 12.5238M95.4031 10.9515C95.6431 10.6492 95.9317 10.498 96.2681 10.498M96.2681 12.5238V10.498M96.2681 12.5238H101.074M96.2681 10.498H101.074M101.074 12.5238V10.498M101.074 12.5238C101.398 12.5238 101.687 12.3725 101.915 12.1005M101.074 10.498C101.398 10.498 101.687 10.362 101.915 10.0748M101.915 12.1005V10.0748M101.915 12.1005C102.155 11.7981 102.275 11.4353 102.275 11.012V8.98633M101.915 10.0748C102.155 9.7724 102.275 9.40961 102.275 8.98633M102.275 8.98633C102.275 8.57818 102.155 8.21533 101.915 7.92811C101.687 7.62576 101.398 7.47461 101.074 7.47461H93.8653C93.5288 7.47461 93.2403 7.33854 92.9996 7.05132C92.7717 6.74897 92.6631 6.38616 92.6631 5.96288M92.6631 5.96288V7.98861C92.6631 7.56533 92.7717 7.21761 92.9996 6.93038M92.6631 5.96288C92.6631 5.55472 92.7717 5.19191 92.9996 4.90468M92.9996 6.93038V4.90468M92.9996 6.93038C93.2403 6.62803 93.5288 6.47686 93.8653 6.47686M92.9996 4.90468C93.2403 4.60233 93.5288 4.45116 93.8653 4.45116M93.8653 6.47686V4.45116M93.8653 6.47686H101.074M93.8653 4.45116H101.074M101.074 6.47686V4.45116M101.074 6.47686C101.398 6.47686 101.687 6.32569 101.915 6.05358M101.074 4.45116C101.398 4.45116 101.687 4.31511 101.915 4.02788M101.915 6.05358V4.02788M101.915 6.05358C102.155 5.75124 102.275 5.38843 102.275 4.96515V2.93945M101.915 4.02788C102.155 3.72554 102.275 3.36273 102.275 2.93945M102.275 2.93945C102.275 2.53128 102.155 2.16848 101.915 1.88125C101.687 1.57891 101.398 1.42773 101.074 1.42773H92.6631C92.0024 1.42773 91.426 1.73008 90.9574 2.31965C90.4888 2.90921 90.2603 3.61972 90.2603 4.45116V5.96288C90.2603 6.38616 90.1403 6.74897 89.9003 7.05132C89.6717 7.33854 89.3831 7.47461 89.0588 7.47461C88.7224 7.47461 88.4339 7.62576 88.1939 7.92811C87.9653 8.21533 87.8574 8.57818 87.8574 8.98633M87.8574 8.98633V11.012C87.8574 11.4353 87.9653 11.7981 88.1939 12.1005M87.8574 8.98633C87.8574 9.40961 87.9653 9.7724 88.1939 10.0748M88.1939 12.1005V10.0748M88.1939 12.1005C88.4339 12.3725 88.7224 12.5238 89.0588 12.5238M88.1939 10.0748C88.4339 10.362 88.7224 10.498 89.0588 10.498M89.0588 12.5238V10.498M89.0588 12.5238C89.3831 12.5238 89.6717 12.6749 89.9003 12.9773M89.0588 10.498C89.3831 10.498 89.6717 10.6492 89.9003 10.9515M89.9003 12.9773V10.9515M89.9003 12.9773C90.1403 13.2645 90.2603 13.6122 90.2603 14.0355V12.0098M89.9003 10.9515C90.1403 11.2388 90.2603 11.6016 90.2603 12.0098M90.2603 12.0098V15.0332M90.2603 15.0332V17.0589C90.2603 17.4822 90.3688 17.845 90.5967 18.1473M90.2603 15.0332C90.2603 15.4565 90.3688 15.8193 90.5967 16.1216M90.5967 18.1473V16.1216M117.895 16.5449V18.5706M117.895 16.5449C118.544 16.5449 119.109 16.2577 119.59 15.6681M117.895 16.5449H105.88M117.895 18.5706C118.544 18.5706 119.109 18.2683 119.59 17.6938M117.895 18.5706H105.88M119.59 15.6681V17.6938M119.59 15.6681C120.058 15.0785 120.298 14.368 120.298 13.5215M105.88 16.5449C105.207 16.5449 104.642 16.2577 104.174 15.6681M105.88 16.5449V18.5706M119.59 17.6938C120.058 17.1043 120.298 16.3938 120.298 15.5472V13.5215M105.88 18.5706C105.207 18.5706 104.642 18.2683 104.174 17.6938M120.298 13.5215V5.96288C120.298 5.55472 120.178 5.19191 119.937 4.90468C119.71 4.60233 119.421 4.45116 119.097 4.45116H116.694C116.357 4.45116 116.069 4.60233 115.829 4.90468C115.6 5.19191 115.492 5.55472 115.492 5.99311M115.492 5.99311V8.01883V12.5238V10.498M115.492 5.99311V10.498M115.492 10.498C115.492 10.9213 115.372 11.2841 115.132 11.5865C114.903 11.8737 114.615 12.0098 114.291 12.0098H109.485C109.148 12.0098 108.86 11.8737 108.62 11.5865C108.391 11.2841 108.283 10.9213 108.283 10.498V5.96288C108.283 5.55472 108.163 5.19191 107.922 4.90468C107.695 4.60233 107.406 4.45116 107.082 4.45116H104.679C104.342 4.45116 104.054 4.60233 103.813 4.90468C103.585 5.19191 103.477 5.55472 103.477 5.99311M103.477 5.99311V8.01883V15.5472M103.477 5.99311V13.5215M103.477 15.5472V13.5215M103.477 15.5472C103.477 16.3786 103.705 17.0891 104.174 17.6938M103.477 13.5215C103.477 14.3529 103.705 15.0785 104.174 15.6681M104.174 17.6938V15.6681M125.105 16.5449V18.5706M125.105 16.5449C125.429 16.5449 125.717 16.4088 125.945 16.1216M125.105 16.5449H122.701M125.105 18.5706C125.429 18.5706 125.717 18.4194 125.945 18.1473M125.105 18.5706H122.701M125.945 16.1216V18.1473M125.945 16.1216C126.185 15.8193 126.306 15.4565 126.306 15.0332M122.701 16.5449C122.365 16.5449 122.077 16.4088 121.836 16.1216M122.701 16.5449V18.5706M125.945 18.1473C126.185 17.845 126.306 17.4822 126.306 17.0589V15.0332M122.701 18.5706C122.365 18.5706 122.077 18.4194 121.836 18.1473M126.306 15.0332V10.498M126.306 10.498V12.5238C126.306 12.1005 126.414 11.7528 126.642 11.4655M126.306 10.498C126.306 10.0899 126.414 9.72704 126.642 9.43983M126.642 11.4655V9.43983M126.642 11.4655C126.882 11.1632 127.171 11.012 127.507 11.012M126.642 9.43983C126.882 9.13747 127.171 8.98633 127.507 8.98633M127.507 11.012V8.98633M127.507 11.012H132.313M127.507 8.98633H132.313M132.313 11.012V8.98633M132.313 11.012C132.637 11.012 132.926 11.1632 133.155 11.4655M132.313 8.98633C132.637 8.98633 132.926 9.13747 133.155 9.43983M133.155 11.4655V9.43983M133.155 11.4655C133.395 11.7528 133.515 12.1005 133.515 12.5238M133.155 9.43983C133.395 9.72704 133.515 10.0899 133.515 10.498M133.515 12.5238V10.498M133.515 12.5238V17.0589M133.515 10.498V15.0332M133.515 17.0589V15.0332M133.515 17.0589C133.515 17.4822 133.623 17.845 133.851 18.1473M133.515 15.0332C133.515 15.4565 133.623 15.8193 133.851 16.1216M133.851 18.1473V16.1216M133.851 18.1473C134.092 18.4194 134.38 18.5706 134.716 18.5706M133.851 16.1216C134.092 16.4088 134.38 16.5449 134.716 16.5449M134.716 18.5706V16.5449M134.716 18.5706H137.12M134.716 16.5449H137.12M137.12 18.5706V16.5449M137.12 18.5706C137.444 18.5706 137.732 18.4194 137.96 18.1473M137.12 16.5449C137.444 16.5449 137.732 16.4088 137.96 16.1216M137.96 18.1473V16.1216M137.96 18.1473C138.201 17.845 138.321 17.4822 138.321 17.0589V15.0332M137.96 16.1216C138.201 15.8193 138.321 15.4565 138.321 15.0332M138.321 15.0332V7.47461C138.321 6.65827 138.08 5.94776 137.612 5.34308C137.143 4.75351 136.579 4.45116 135.918 4.45116H123.902C123.242 4.45116 122.665 4.75351 122.197 5.34308C121.728 5.93265 121.5 6.64316 121.5 7.47461M121.5 7.47461V9.50033V17.0589M121.5 7.47461V15.0332M121.5 17.0589V15.0332M121.5 17.0589C121.5 17.4822 121.608 17.845 121.836 18.1473M121.5 15.0332C121.5 15.4565 121.608 15.8193 121.836 16.1216M121.836 18.1473V16.1216" stroke="#43414D" stroke-width="4" stroke-linecap="round" stroke-linejoin="round"/>
<path d="M91.4617 16.5449C91.1253 16.5449 90.8374 16.4088 90.5967 16.1216C90.3688 15.8193 90.2603 15.4565 90.2603 15.0332V12.0098C90.2603 11.6016 90.1403 11.2388 89.9003 10.9515C89.6717 10.6492 89.3831 10.498 89.0588 10.498C88.7224 10.498 88.4339 10.362 88.1939 10.0748C87.9653 9.7724 87.8574 9.40961 87.8574 8.98633C87.8574 8.57811 87.9653 8.21533 88.1939 7.92811C88.4339 7.62576 88.7224 7.47461 89.0588 7.47461C89.3831 7.47461 89.6717 7.33854 89.9003 7.05131C90.1403 6.74897 90.2603 6.38616 90.2603 5.96288V4.45116C90.2603 3.61972 90.4888 2.90921 90.9574 2.31965C91.426 1.73008 92.0024 1.42773 92.6631 1.42773H101.074C101.398 1.42773 101.687 1.57891 101.915 1.88125C102.155 2.16848 102.275 2.53128 102.275 2.93945C102.275 3.36273 102.155 3.72554 101.915 4.02788C101.687 4.31511 101.398 4.45116 101.074 4.45116H93.8653C93.5288 4.45116 93.2403 4.60233 92.9996 4.90468C92.7717 5.19191 92.6631 5.55472 92.6631 5.96288C92.6631 6.38616 92.7717 6.74897 92.9996 7.05131C93.2403 7.33854 93.5288 7.47461 93.8653 7.47461H101.074C101.398 7.47461 101.687 7.62576 101.915 7.92811C102.155 8.21533 102.275 8.57811 102.275 8.98633C102.275 9.40961 102.155 9.7724 101.915 10.0748C101.687 10.362 101.398 10.498 101.074 10.498H96.2681C95.9317 10.498 95.6431 10.6492 95.4031 10.9515C95.1746 11.2388 95.0667 11.6016 95.0667 12.0098V15.0332C95.0667 15.4565 94.946 15.8193 94.706 16.1216C94.4774 16.4088 94.1896 16.5449 93.8653 16.5449H91.4617ZM105.88 16.5449C105.207 16.5449 104.642 16.2577 104.174 15.6681C103.705 15.0785 103.477 14.3529 103.477 13.5215V5.99311C103.477 5.55472 103.585 5.19191 103.813 4.90468C104.054 4.60233 104.342 4.45116 104.679 4.45116H107.082C107.406 4.45116 107.695 4.60233 107.922 4.90468C108.163 5.19191 108.283 5.55472 108.283 5.96288V10.498C108.283 10.9213 108.391 11.2841 108.62 11.5865C108.86 11.8737 109.148 12.0098 109.485 12.0098H114.291C114.615 12.0098 114.903 11.8737 115.132 11.5865C115.372 11.2841 115.492 10.9213 115.492 10.498V5.99311C115.492 5.55472 115.6 5.19191 115.829 4.90468C116.069 4.60233 116.357 4.45116 116.694 4.45116H119.097C119.421 4.45116 119.71 4.60233 119.937 4.90468C120.178 5.19191 120.298 5.55472 120.298 5.96288V13.5215C120.298 14.368 120.058 15.0785 119.59 15.6681C119.109 16.2577 118.544 16.5449 117.895 16.5449H105.88ZM122.701 16.5449C122.365 16.5449 122.077 16.4088 121.836 16.1216C121.608 15.8193 121.5 15.4565 121.5 15.0332V7.47461C121.5 6.64316 121.728 5.93265 122.197 5.34308C122.665 4.75351 123.242 4.45116 123.902 4.45116H135.918C136.579 4.45116 137.143 4.75351 137.612 5.34308C138.08 5.94776 138.321 6.65827 138.321 7.47461V15.0332C138.321 15.4565 138.201 15.8193 137.96 16.1216C137.732 16.4088 137.444 16.5449 137.12 16.5449H134.716C134.38 16.5449 134.092 16.4088 133.851 16.1216C133.623 15.8193 133.515 15.4565 133.515 15.0332V10.498C133.515 10.0899 133.395 9.72704 133.155 9.43983C132.926 9.13747 132.637 8.98633 132.313 8.98633H127.507C127.171 8.98633 126.882 9.13747 126.642 9.43983C126.414 9.72704 126.306 10.0899 126.306 10.498V15.0332C126.306 15.4565 126.185 15.8193 125.945 16.1216C125.717 16.4088 125.429 16.5449 125.105 16.5449H122.701Z" fill="#F5F3FF"/>
<path d="M17.8355 16.5477V18.5706C18.4701 18.5706 19.02 18.2785 19.4835 17.6962V15.6734C19.02 16.2556 18.4701 16.5477 17.8355 16.5477ZM19.4835 15.6734V17.6962C19.9471 17.114 20.1797 16.3967 20.1797 15.5462V13.5233C20.1797 14.3738 19.9471 15.0912 19.4835 15.6734ZM6.11642 10.499V12.5218V7.98724V5.96432V10.499ZM1.42969 13.5233V15.5462C1.42969 16.3808 1.65609 17.0982 2.10737 17.6962V15.6734C1.65609 15.0752 1.42969 14.3579 1.42969 13.5233ZM2.10737 15.6734V17.6962C2.55863 18.2785 3.11463 18.5706 3.77382 18.5706V16.5477C3.11463 16.5477 2.55863 16.2556 2.10737 15.6734ZM3.77382 16.5477V18.5706H17.8355V16.5477H3.77382ZM17.8355 16.5477C18.4701 16.5477 19.02 16.2556 19.4835 15.6734C19.9471 15.0912 20.1797 14.3738 20.1797 13.5233V5.96432C20.1797 5.55498 20.0642 5.20127 19.8316 4.90121C19.599 4.60116 19.3249 4.45213 19.0076 4.45213H16.6635C16.3339 4.45213 16.0535 4.60116 15.821 4.90121C15.6008 5.20127 15.4914 5.56293 15.4914 5.98817V10.499C15.4914 10.9242 15.3759 11.2858 15.1433 11.5859C14.9123 11.87 14.6382 12.0111 14.3193 12.0111C13.9898 12.0111 13.7095 11.87 13.4784 11.5859C13.2582 11.2858 13.1488 10.9242 13.1488 10.499V5.96432C13.1488 5.55498 13.0333 5.20127 12.8008 4.90121C12.5682 4.60116 12.294 4.45213 11.9768 4.45213H9.63262C9.30305 4.45213 9.02269 4.60116 8.79012 4.90121C8.5699 5.20127 8.46054 5.56293 8.46054 5.98817V10.499C8.46054 10.9242 8.34504 11.2858 8.11247 11.5859C7.8799 11.87 7.60576 12.0111 7.28847 12.0111C6.95889 12.0111 6.67858 11.87 6.44602 11.5859C6.22577 11.2858 6.11642 10.9242 6.11642 10.499V5.96432C6.11642 5.55498 6.0009 5.20127 5.76834 4.90121C5.53732 4.60116 5.26317 4.45213 4.94435 4.45213H2.60175C2.27216 4.45213 1.99185 4.60116 1.75928 4.90121C1.53904 5.20127 1.42969 5.56293 1.42969 5.98817V13.5233C1.42969 14.3579 1.65609 15.0752 2.10737 15.6734C2.55863 16.2556 3.11463 16.5477 3.77382 16.5477H17.8355ZM35.4135 16.5477V18.5706C36.048 18.5706 36.5979 18.2785 37.0615 17.6962V15.6734C36.5979 16.2556 36.048 16.5477 35.4135 16.5477ZM37.0615 15.6734V17.6962C37.525 17.114 37.7576 16.3967 37.7576 15.5462V13.5233C37.7576 14.3738 37.525 15.0912 37.0615 15.6734ZM21.3518 7.47652V9.49938V15.5462V13.5233V7.47652ZM21.3518 13.5233V15.5462C21.3518 16.3808 21.5782 17.0982 22.0294 17.6962V15.6734C21.5782 15.0752 21.3518 14.3579 21.3518 13.5233ZM22.0294 15.6734V17.6962C22.4807 18.2785 23.0352 18.5706 23.6943 18.5706V16.5477C23.0352 16.5477 22.4807 16.2556 22.0294 15.6734ZM23.6943 16.5477V18.5706H35.4135V16.5477H23.6943ZM35.4135 16.5477C36.048 16.5477 36.5979 16.2556 37.0615 15.6734C37.525 15.0912 37.7576 14.3738 37.7576 13.5233V7.47652C37.7576 6.65783 37.525 5.94843 37.0615 5.35031C36.6102 4.75218 36.0603 4.45213 35.4135 4.45213H23.6943C23.0475 4.45213 22.493 4.75218 22.0294 5.35031C21.5782 5.93253 21.3518 6.64193 21.3518 7.47652V13.5233C21.3518 14.3579 21.5782 15.0752 22.0294 15.6734C22.4807 16.2556 23.0352 16.5477 23.6943 16.5477H35.4135ZM26.0385 8.98873V11.0116C26.0385 10.6002 26.1478 10.2466 26.3681 9.94852V7.92559C26.1478 8.22366 26.0385 8.57738 26.0385 8.98873ZM26.3681 7.92559V9.94852C26.6006 9.64845 26.881 9.49938 27.2105 9.49938V7.47652C26.881 7.47652 26.6006 7.62552 26.3681 7.92559ZM27.2105 7.47652V9.49938H31.8988V7.47652H27.2105ZM31.8988 7.47652V9.49938C32.2161 9.49938 32.4903 9.64845 32.7228 9.94852V7.92559C32.4903 7.62552 32.2161 7.47652 31.8988 7.47652ZM32.7228 7.92559V9.94852C32.9538 10.2466 33.0693 10.6002 33.0693 11.0116V8.98873C33.0693 8.57738 32.9538 8.22366 32.7228 7.92559ZM27.2105 10.499C26.881 10.499 26.6006 10.3578 26.3681 10.0737C26.1478 9.77559 26.0385 9.41395 26.0385 8.98873C26.0385 8.57738 26.1478 8.22366 26.3681 7.92559C26.6006 7.62552 26.881 7.47652 27.2105 7.47652H31.8988C32.2161 7.47652 32.4903 7.62552 32.7228 7.92559C32.9538 8.22366 33.0693 8.57738 33.0693 8.98873C33.0693 9.41395 32.9538 9.77559 32.7228 10.0737C32.4903 10.3578 32.2161 10.499 31.8988 10.499H27.2105ZM40.9258 16.1224V18.1454C41.1583 17.8453 41.2738 17.4837 41.2738 17.0584V15.0355C41.2738 15.4607 41.1583 15.8224 40.9258 16.1224ZM41.2738 15.0355V17.0584V14.034V12.0111V15.0355ZM41.2738 12.0111V14.034C41.2738 13.6247 41.3832 13.271 41.6034 12.9709V10.948C41.3832 11.2481 41.2738 11.6018 41.2738 12.0111ZM41.6034 10.948V12.9709C41.836 12.6708 42.1163 12.5218 42.4459 12.5218V10.499C42.1163 10.499 41.836 10.6479 41.6034 10.948ZM42.4459 10.499V12.5218H51.8209V10.499H42.4459ZM51.8209 10.499V12.5218C52.1382 12.5218 52.4123 12.3807 52.6449 12.0966V10.0737C52.4123 10.3578 52.1382 10.499 51.8209 10.499ZM52.6449 10.0737V12.0966C52.8759 11.7985 52.9914 11.4368 52.9914 11.0116V8.98873C52.9914 9.41395 52.8759 9.77559 52.6449 10.0737ZM52.9914 8.98873V11.0116V9.49938V7.47652V8.98873ZM38.9297 15.0355V17.0584C38.9297 17.4837 39.039 17.8453 39.2593 18.1454V16.1224C39.039 15.8224 38.9297 15.4607 38.9297 15.0355ZM39.2593 16.1224V18.1454C39.4918 18.4295 39.7722 18.5706 40.1018 18.5706V16.5477C39.7722 16.5477 39.4918 16.4066 39.2593 16.1224ZM40.1018 16.5477V18.5706C40.419 18.5706 40.6932 18.4295 40.9258 18.1454V16.1224C40.6932 16.4066 40.419 16.5477 40.1018 16.5477ZM40.9258 16.1224C41.1583 15.8224 41.2738 15.4607 41.2738 15.0355V12.0111C41.2738 11.6018 41.3832 11.2481 41.6034 10.948C41.836 10.6479 42.1163 10.499 42.4459 10.499H51.8209C52.1382 10.499 52.4123 10.3578 52.6449 10.0737C52.8759 9.77559 52.9914 9.41395 52.9914 8.98873V7.47652C52.9914 6.65783 52.7604 5.94843 52.2968 5.35031C51.8455 4.75218 51.2957 4.45213 50.6488 4.45213H47.1326C46.803 4.45213 46.5227 4.60116 46.2901 4.90121C46.0699 5.20127 45.9605 5.56293 45.9605 5.98817V5.96432C45.9605 6.38956 45.845 6.75122 45.6125 7.05128C45.3799 7.33545 45.1058 7.47652 44.7885 7.47652C44.4589 7.47652 44.1786 7.33545 43.946 7.05128C43.7258 6.75122 43.6164 6.38956 43.6164 5.96432C43.6164 5.55498 43.5009 5.20127 43.2699 4.90121C43.0373 4.60116 42.7632 4.45213 42.4459 4.45213H40.1018C39.7722 4.45213 39.4918 4.60116 39.2593 4.90121C39.039 5.20127 38.9297 5.56293 38.9297 5.98817V15.0355C38.9297 15.4607 39.039 15.8224 39.2593 16.1224C39.4918 16.4066 39.7722 16.5477 40.1018 16.5477C40.419 16.5477 40.6932 16.4066 40.9258 16.1224ZM57.6797 16.5477V18.5706C57.997 18.5706 58.2711 18.4295 58.5037 18.1454V16.1224C58.2711 16.4066 57.997 16.5477 57.6797 16.5477ZM58.5037 16.1224V18.1454C58.7363 17.8453 58.8518 17.4837 58.8518 17.0584V15.0355C58.8518 15.4607 58.7363 15.8224 58.5037 16.1224ZM56.5076 12.7682V14.7911C56.5076 14.5865 56.563 14.4115 56.6724 14.2704V12.2476C56.563 12.3887 56.5076 12.5635 56.5076 12.7682ZM56.6724 12.2476V14.2704C56.7818 14.1135 56.9235 14.034 57.0944 14.034V12.0111C56.9235 12.0111 56.7818 12.0906 56.6724 12.2476ZM57.0944 12.0111V14.034H57.6797V12.0111H57.0944ZM57.6797 12.0111V14.034C57.997 14.034 58.2711 13.893 58.5037 13.6087V11.5859C58.2711 11.87 57.997 12.0111 57.6797 12.0111ZM58.5037 11.5859V13.6087C58.7363 13.3087 58.8518 12.947 58.8518 12.5218V10.499C58.8518 10.9242 58.7363 11.2858 58.5037 11.5859ZM58.8518 10.499V12.5218V4.96281V2.93993V10.499ZM54.1635 2.96378V4.98666V15.5462V13.5233V2.96378ZM54.1635 13.5233V15.5462C54.1635 16.3808 54.3899 17.0982 54.8412 17.6962V15.6734C54.3899 15.0752 54.1635 14.3579 54.1635 13.5233ZM54.8412 15.6734V17.6962C55.2924 18.2785 55.8484 18.5706 56.5076 18.5706V16.5477C55.8484 16.5477 55.2924 16.2556 54.8412 15.6734ZM56.5076 16.5477V18.5706H57.6797V16.5477H56.5076ZM57.6797 16.5477C57.997 16.5477 58.2711 16.4066 58.5037 16.1224C58.7363 15.8224 58.8518 15.4607 58.8518 15.0355C58.8518 14.6262 58.7363 14.2725 58.5037 13.9724C58.2711 13.6724 57.997 13.5233 57.6797 13.5233H57.0944C56.9235 13.5233 56.7818 13.4518 56.6724 13.3107C56.563 13.1696 56.5076 12.9888 56.5076 12.7682C56.5076 12.5635 56.563 12.3887 56.6724 12.2476C56.7818 12.0906 56.9235 12.0111 57.0944 12.0111H57.6797C57.997 12.0111 58.2711 11.87 58.5037 11.5859C58.7363 11.2858 58.8518 10.9242 58.8518 10.499V2.93993C58.8518 2.53058 58.7363 2.17688 58.5037 1.87682C58.2711 1.57677 57.997 1.42773 57.6797 1.42773H55.3355C55.006 1.42773 54.7256 1.57677 54.493 1.87682C54.2728 2.17688 54.1635 2.53853 54.1635 2.96378V13.5233C54.1635 14.3579 54.3899 15.0752 54.8412 15.6734C55.2924 16.2556 55.8484 16.5477 56.5076 16.5477H57.6797ZM75.2575 16.5477V18.5706C75.5747 18.5706 75.849 18.4295 76.0818 18.1454V16.1224C75.849 16.4066 75.5747 16.5477 75.2575 16.5477ZM76.0818 16.1224V18.1454C76.314 17.8453 76.4297 17.4837 76.4297 17.0584V15.0355C76.4297 15.4607 76.314 15.8224 76.0818 16.1224ZM60.0238 7.47652V9.49938V15.5462V13.5233V7.47652ZM60.0238 13.5233V15.5462C60.0238 16.3808 60.2503 17.0982 60.7015 17.6962V15.6734C60.2503 15.0752 60.0238 14.3579 60.0238 13.5233ZM60.7015 15.6734V17.6962C61.1528 18.2785 61.7073 18.5706 62.3664 18.5706V16.5477C61.7073 16.5477 61.1528 16.2556 60.7015 15.6734ZM62.3664 16.5477V18.5706H75.2575V16.5477H62.3664ZM75.2575 16.5477C75.5747 16.5477 75.849 16.4066 76.0818 16.1224C76.314 15.8224 76.4297 15.4607 76.4297 15.0355V2.93993C76.4297 2.53058 76.314 2.17688 76.0818 1.87682C75.849 1.57677 75.5747 1.42773 75.2575 1.42773H72.9133C72.584 1.42773 72.3033 1.57677 72.0725 1.87682C71.8525 2.17688 71.7433 2.53853 71.7433 2.96378V2.93993C71.7433 3.36517 71.6275 3.72683 71.3949 4.02688C71.1623 4.31104 70.8882 4.45213 70.5709 4.45213H62.3664C61.7195 4.45213 61.1651 4.75218 60.7015 5.35031C60.2503 5.93253 60.0238 6.64193 60.0238 7.47652V13.5233C60.0238 14.3579 60.2503 15.0752 60.7015 15.6734C61.1528 16.2556 61.7073 16.5477 62.3664 16.5477H75.2575ZM64.7105 8.98873V11.0116C64.7105 10.6002 64.8199 10.2466 65.0401 9.94852V7.92559C64.8199 8.22366 64.7105 8.57738 64.7105 8.98873ZM65.0401 7.92559V9.94852C65.2727 9.64845 65.553 9.49938 65.8826 9.49938V7.47652C65.553 7.47652 65.2727 7.62552 65.0401 7.92559ZM65.8826 7.47652V9.49938H72.9133V7.47652H65.8826ZM72.9133 7.47652V9.49938C73.2304 9.49938 73.5047 9.64845 73.7375 9.94852V7.92559C73.5047 7.62552 73.2304 7.47652 72.9133 7.47652ZM73.7375 7.92559V9.94852C73.9704 10.2466 74.0854 10.6002 74.0854 11.0116V8.98873C74.0854 8.57738 73.9704 8.22366 73.7375 7.92559ZM74.0854 8.98873V11.0116V12.5218V10.499V8.98873ZM67.0547 12.0111C66.4078 12.0111 65.8518 11.719 65.3883 11.1368C64.937 10.5387 64.7105 9.82331 64.7105 8.98873C64.7105 8.57738 64.8199 8.22366 65.0401 7.92559C65.2727 7.62552 65.553 7.47652 65.8826 7.47652H72.9133C73.2304 7.47652 73.5047 7.62552 73.7375 7.92559C73.9704 8.22366 74.0854 8.57738 74.0854 8.98873V10.499C74.0854 10.9242 73.9704 11.2858 73.7375 11.5859C73.5047 11.87 73.2304 12.0111 72.9133 12.0111H67.0547Z" fill="#43414D"/>
<path d="M17.8355 16.5477V18.5706M17.8355 16.5477C18.4701 16.5477 19.02 16.2556 19.4835 15.6734M17.8355 16.5477H3.77382M17.8355 18.5706C18.4701 18.5706 19.02 18.2785 19.4835 17.6962M17.8355 18.5706H3.77382M19.4835 15.6734V17.6962M19.4835 15.6734C19.9471 15.0912 20.1797 14.3738 20.1797 13.5233M3.77382 16.5477C3.11463 16.5477 2.55863 16.2556 2.10737 15.6734M3.77382 16.5477V18.5706M19.4835 17.6962C19.9471 17.114 20.1797 16.3967 20.1797 15.5462V13.5233M3.77382 18.5706C3.11463 18.5706 2.55863 18.2785 2.10737 17.6962M20.1797 13.5233V5.96432C20.1797 5.55498 20.0642 5.20127 19.8316 4.90121C19.599 4.60116 19.3249 4.45213 19.0076 4.45213H16.6635C16.3339 4.45213 16.0535 4.60116 15.821 4.90121C15.6008 5.20127 15.4914 5.56293 15.4914 5.98817V10.4989C15.4914 10.9242 15.3759 11.2858 15.1433 11.5859C14.9123 11.87 14.6382 12.0111 14.3193 12.0111C13.9898 12.0111 13.7095 11.87 13.4784 11.5859C13.2582 11.2858 13.1488 10.9242 13.1488 10.4989V5.96432C13.1488 5.55498 13.0333 5.20127 12.8008 4.90121C12.5682 4.60116 12.294 4.45213 11.9768 4.45213H9.63262C9.30305 4.45213 9.02269 4.60116 8.79012 4.90121C8.5699 5.20127 8.46054 5.56293 8.46054 5.98817V10.4989C8.46054 10.9242 8.34504 11.2858 8.11247 11.5859C7.8799 11.87 7.60576 12.0111 7.28847 12.0111C6.95889 12.0111 6.67858 11.87 6.44602 11.5859C6.22577 11.2858 6.11642 10.9242 6.11642 10.4989M6.11642 10.4989V12.5218V7.98724V5.96432M6.11642 10.4989V5.96432M6.11642 5.96432C6.11642 5.55498 6.0009 5.20127 5.76834 4.90121C5.53732 4.60116 5.26317 4.45213 4.94435 4.45213H2.60175C2.27216 4.45213 1.99185 4.60116 1.75928 4.90121C1.53904 5.20127 1.42969 5.56293 1.42969 5.98817V13.5233M1.42969 13.5233V15.5462C1.42969 16.3808 1.65609 17.0982 2.10737 17.6962M1.42969 13.5233C1.42969 14.3579 1.65609 15.0752 2.10737 15.6734M2.10737 17.6962V15.6734M35.4135 16.5477V18.5706M35.4135 16.5477C36.048 16.5477 36.5979 16.2556 37.0615 15.6734M35.4135 16.5477H23.6943M35.4135 18.5706C36.048 18.5706 36.5979 18.2785 37.0615 17.6962M35.4135 18.5706H23.6943M37.0615 15.6734V17.6962M37.0615 15.6734C37.525 15.0912 37.7576 14.3738 37.7576 13.5233M23.6943 16.5477C23.0352 16.5477 22.4807 16.2556 22.0294 15.6734M23.6943 16.5477V18.5706M37.0615 17.6962C37.525 17.114 37.7576 16.3967 37.7576 15.5462V13.5233M23.6943 18.5706C23.0352 18.5706 22.4807 18.2785 22.0294 17.6962M37.7576 13.5233V7.47652C37.7576 6.65783 37.525 5.94843 37.0615 5.35031C36.6102 4.75218 36.0603 4.45213 35.4135 4.45213H23.6943C23.0475 4.45213 22.493 4.75218 22.0294 5.35031C21.5782 5.93253 21.3518 6.64193 21.3518 7.47652M21.3518 7.47652V9.49938V15.5462M21.3518 7.47652V13.5233M21.3518 15.5462V13.5233M21.3518 15.5462C21.3518 16.3808 21.5782 17.0982 22.0294 17.6962M21.3518 13.5233C21.3518 14.3579 21.5782 15.0752 22.0294 15.6734M22.0294 17.6962V15.6734M26.0385 8.98873V11.0116C26.0385 10.6002 26.1478 10.2466 26.3681 9.94852M26.0385 8.98873C26.0385 8.57738 26.1478 8.22366 26.3681 7.92559M26.0385 8.98873C26.0385 9.41395 26.1478 9.77559 26.3681 10.0737C26.6006 10.3578 26.881 10.4989 27.2105 10.4989H31.8988C32.2161 10.4989 32.4903 10.3578 32.7228 10.0737C32.9538 9.77559 33.0693 9.41395 33.0693 8.98873M26.3681 9.94852V7.92559M26.3681 9.94852C26.6006 9.64845 26.881 9.49938 27.2105 9.49938M26.3681 7.92559C26.6006 7.62552 26.881 7.47652 27.2105 7.47652M33.0693 8.98873V11.0116C33.0693 10.6002 32.9538 10.2466 32.7228 9.94852M33.0693 8.98873C33.0693 8.57738 32.9538 8.22366 32.7228 7.92559M27.2105 9.49938V7.47652M27.2105 9.49938H31.8988M27.2105 7.47652H31.8988M31.8988 9.49938V7.47652M31.8988 9.49938C32.2161 9.49938 32.4903 9.64845 32.7228 9.94852M31.8988 7.47652C32.2161 7.47652 32.4903 7.62552 32.7228 7.92559M32.7228 9.94852V7.92559M40.9258 16.1224V18.1454M40.9258 16.1224C41.1583 15.8224 41.2738 15.4607 41.2738 15.0355M40.9258 16.1224C40.6932 16.4066 40.419 16.5477 40.1018 16.5477M40.9258 18.1454C41.1583 17.8453 41.2738 17.4837 41.2738 17.0584M40.9258 18.1454C40.6932 18.4295 40.419 18.5706 40.1018 18.5706M41.2738 15.0355V17.0584M41.2738 15.0355V12.0111M40.1018 16.5477C39.7722 16.5477 39.4918 16.4066 39.2593 16.1224M40.1018 16.5477V18.5706M41.2738 17.0584V14.034M40.1018 18.5706C39.7722 18.5706 39.4918 18.4295 39.2593 18.1454M41.2738 14.034V12.0111M41.2738 14.034C41.2738 13.6247 41.3832 13.271 41.6034 12.9709M41.2738 12.0111C41.2738 11.6018 41.3832 11.2481 41.6034 10.948M41.6034 12.9709V10.948M41.6034 12.9709C41.836 12.6708 42.1163 12.5218 42.4459 12.5218M41.6034 10.948C41.836 10.6479 42.1163 10.4989 42.4459 10.4989M42.4459 12.5218V10.4989M42.4459 12.5218H51.8209M42.4459 10.4989H51.8209M51.8209 12.5218V10.4989M51.8209 12.5218C52.1382 12.5218 52.4123 12.3807 52.6449 12.0966M51.8209 10.4989C52.1382 10.4989 52.4123 10.3578 52.6449 10.0737M52.6449 12.0966V10.0737M52.6449 12.0966C52.8759 11.7985 52.9914 11.4368 52.9914 11.0116M52.6449 10.0737C52.8759 9.77559 52.9914 9.41395 52.9914 8.98873M52.9914 11.0116V8.98873M52.9914 11.0116V9.49938V7.47652M52.9914 8.98873V7.47652M52.9914 7.47652C52.9914 6.65783 52.7604 5.94843 52.2968 5.35031C51.8455 4.75218 51.2957 4.45213 50.6488 4.45213H47.1326C46.803 4.45213 46.5227 4.60116 46.2901 4.90121C46.0699 5.20127 45.9605 5.56293 45.9605 5.98817V5.96432C45.9605 6.38956 45.845 6.75122 45.6125 7.05128C45.3799 7.33545 45.1058 7.47652 44.7885 7.47652C44.4589 7.47652 44.1786 7.33545 43.946 7.05128C43.7258 6.75122 43.6164 6.38956 43.6164 5.96432C43.6164 5.55498 43.5009 5.20127 43.2699 4.90121C43.0373 4.60116 42.7632 4.45213 42.4459 4.45213H40.1018C39.7722 4.45213 39.4918 4.60116 39.2593 4.90121C39.039 5.20127 38.9297 5.56293 38.9297 5.98817V15.0355M38.9297 15.0355V17.0584C38.9297 17.4837 39.039 17.8453 39.2593 18.1454M38.9297 15.0355C38.9297 15.4607 39.039 15.8224 39.2593 16.1224M39.2593 18.1454V16.1224M57.6797 16.5477V18.5706M57.6797 16.5477C57.997 16.5477 58.2711 16.4066 58.5037 16.1224M57.6797 16.5477H56.5076M57.6797 18.5706C57.997 18.5706 58.2711 18.4295 58.5037 18.1454M57.6797 18.5706H56.5076M58.5037 16.1224V18.1454M58.5037 16.1224C58.7363 15.8224 58.8518 15.4607 58.8518 15.0355M56.5076 16.5477C55.8484 16.5477 55.2924 16.2556 54.8412 15.6734M56.5076 16.5477V18.5706M58.5037 18.1454C58.7363 17.8453 58.8518 17.4837 58.8518 17.0584V15.0355M56.5076 18.5706C55.8484 18.5706 55.2924 18.2785 54.8412 17.6962M58.8518 15.0355C58.8518 14.6262 58.7363 14.2725 58.5037 13.9724C58.2711 13.6724 57.997 13.5233 57.6797 13.5233H57.0944C56.9235 13.5233 56.7818 13.4518 56.6724 13.3107C56.563 13.1696 56.5076 12.9888 56.5076 12.7682M56.5076 12.7682V14.7911C56.5076 14.5865 56.563 14.4115 56.6724 14.2704M56.5076 12.7682C56.5076 12.5635 56.563 12.3887 56.6724 12.2476M56.6724 14.2704V12.2476M56.6724 14.2704C56.7818 14.1135 56.9235 14.034 57.0944 14.034M56.6724 12.2476C56.7818 12.0906 56.9235 12.0111 57.0944 12.0111M57.0944 14.034V12.0111M57.0944 14.034H57.6797M57.0944 12.0111H57.6797M57.6797 14.034V12.0111M57.6797 14.034C57.997 14.034 58.2711 13.893 58.5037 13.6087M57.6797 12.0111C57.997 12.0111 58.2711 11.87 58.5037 11.5859M58.5037 13.6087V11.5859M58.5037 13.6087C58.7363 13.3087 58.8518 12.947 58.8518 12.5218M58.5037 11.5859C58.7363 11.2858 58.8518 10.9242 58.8518 10.4989M58.8518 12.5218V10.4989M58.8518 12.5218V4.96281V2.93993M58.8518 10.4989V2.93993M58.8518 2.93993C58.8518 2.53058 58.7363 2.17688 58.5037 1.87682C58.2711 1.57677 57.997 1.42773 57.6797 1.42773H55.3355C55.006 1.42773 54.7256 1.57677 54.4931 1.87682C54.2728 2.17688 54.1635 2.53853 54.1635 2.96378M54.1635 2.96378V4.98666V15.5462M54.1635 2.96378V13.5233M54.1635 15.5462V13.5233M54.1635 15.5462C54.1635 16.3808 54.3899 17.0982 54.8412 17.6962M54.1635 13.5233C54.1635 14.3579 54.3899 15.0752 54.8412 15.6734M54.8412 17.6962V15.6734M75.2575 16.5477V18.5706M75.2575 16.5477C75.5747 16.5477 75.849 16.4066 76.0818 16.1224M75.2575 16.5477H62.3664M75.2575 18.5706C75.5747 18.5706 75.849 18.4295 76.0818 18.1454M75.2575 18.5706H62.3664M76.0818 16.1224V18.1454M76.0818 16.1224C76.314 15.8224 76.4297 15.4607 76.4297 15.0355M62.3664 16.5477C61.7073 16.5477 61.1528 16.2556 60.7015 15.6734M62.3664 16.5477V18.5706M76.0818 18.1454C76.314 17.8453 76.4297 17.4837 76.4297 17.0584V15.0355M62.3664 18.5706C61.7073 18.5706 61.1528 18.2785 60.7015 17.6962M76.4297 15.0355V2.93993C76.4297 2.53058 76.314 2.17688 76.0818 1.87682C75.849 1.57677 75.5747 1.42773 75.2575 1.42773H72.9133C72.584 1.42773 72.3033 1.57677 72.0725 1.87682C71.8525 2.17688 71.7433 2.53853 71.7433 2.96378V2.93993C71.7433 3.36517 71.6275 3.72683 71.3949 4.02688C71.1623 4.31104 70.8882 4.45213 70.5709 4.45213H62.3664C61.7195 4.45213 61.1651 4.75218 60.7015 5.35031C60.2503 5.93253 60.0238 6.64193 60.0238 7.47652M60.0238 7.47652V9.49938V15.5462M60.0238 7.47652V13.5233M60.0238 15.5462V13.5233M60.0238 15.5462C60.0238 16.3808 60.2503 17.0982 60.7015 17.6962M60.0238 13.5233C60.0238 14.3579 60.2503 15.0752 60.7015 15.6734M60.7015 17.6962V15.6734M64.7105 8.98873V11.0116C64.7105 10.6002 64.8199 10.2466 65.0401 9.94852M64.7105 8.98873C64.7105 8.57738 64.8199 8.22366 65.0401 7.92559M64.7105 8.98873C64.7105 9.82331 64.937 10.5387 65.3883 11.1368C65.8518 11.719 66.4078 12.0111 67.0547 12.0111H72.9133C73.2304 12.0111 73.5047 11.87 73.7375 11.5859C73.9697 11.2858 74.0854 10.9242 74.0854 10.4989M65.0401 9.94852V7.92559M65.0401 9.94852C65.2727 9.64845 65.553 9.49938 65.8826 9.49938M65.0401 7.92559C65.2727 7.62552 65.553 7.47652 65.8826 7.47652M74.0854 10.4989V12.5218V11.0116M74.0854 10.4989V8.98873M65.8826 9.49938V7.47652M65.8826 9.49938H72.9133M65.8826 7.47652H72.9133M72.9133 9.49938V7.47652M72.9133 9.49938C73.2304 9.49938 73.5047 9.64845 73.7375 9.94852M72.9133 7.47652C73.2304 7.47652 73.5047 7.62552 73.7375 7.92559M73.7375 9.94852V7.92559M73.7375 9.94852C73.9697 10.2466 74.0854 10.6002 74.0854 11.0116M73.7375 7.92559C73.9697 8.22366 74.0854 8.57738 74.0854 8.98873M74.0854 11.0116V8.98873" stroke="#43414D" stroke-width="4" stroke-linecap="round" stroke-linejoin="round"/>
<path d="M3.77382 16.5477C3.11463 16.5477 2.55863 16.2556 2.10736 15.6734C1.65609 15.0752 1.42969 14.3579 1.42969 13.5233V5.98817C1.42969 5.56293 1.53904 5.20127 1.75928 4.90121C1.99185 4.60116 2.27216 4.45213 2.60175 4.45213H4.94435C5.26317 4.45213 5.53732 4.60116 5.76834 4.90121C6.0009 5.20127 6.11642 5.55498 6.11642 5.96432V10.4989C6.11642 10.9242 6.22577 11.2858 6.44601 11.5859C6.67858 11.87 6.95889 12.0111 7.28847 12.0111C7.60576 12.0111 7.8799 11.87 8.11247 11.5859C8.34504 11.2858 8.46054 10.9242 8.46054 10.4989V5.98817C8.46054 5.56293 8.5699 5.20127 8.79012 4.90121C9.02269 4.60116 9.30305 4.45213 9.63262 4.45213H11.9768C12.294 4.45213 12.5682 4.60116 12.8008 4.90121C13.0333 5.20127 13.1488 5.55498 13.1488 5.96432V10.4989C13.1488 10.9242 13.2582 11.2858 13.4784 11.5859C13.7095 11.87 13.9898 12.0111 14.3193 12.0111C14.6382 12.0111 14.9123 11.87 15.1433 11.5859C15.3759 11.2858 15.4914 10.9242 15.4914 10.4989V5.98817C15.4914 5.56293 15.6008 5.20127 15.821 4.90121C16.0535 4.60116 16.3339 4.45213 16.6635 4.45213H19.0076C19.3249 4.45213 19.599 4.60116 19.8316 4.90121C20.0642 5.20127 20.1797 5.55498 20.1797 5.96432V13.5233C20.1797 14.3738 19.9471 15.0912 19.4835 15.6734C19.02 16.2556 18.4701 16.5477 17.8355 16.5477H3.77382ZM23.6943 16.5477C23.0352 16.5477 22.4807 16.2556 22.0294 15.6734C21.5782 15.0752 21.3518 14.3579 21.3518 13.5233V7.47652C21.3518 6.64193 21.5782 5.93253 22.0294 5.35031C22.493 4.75218 23.0475 4.45213 23.6943 4.45213H35.4135C36.0603 4.45213 36.6102 4.75218 37.0615 5.35031C37.525 5.94843 37.7576 6.65783 37.7576 7.47652V13.5233C37.7576 14.3738 37.525 15.0912 37.0615 15.6734C36.5979 16.2556 36.048 16.5477 35.4135 16.5477H23.6943ZM31.8988 10.4989C32.2161 10.4989 32.4903 10.3578 32.7228 10.0737C32.9538 9.77559 33.0693 9.41395 33.0693 8.98873C33.0693 8.57738 32.9538 8.22366 32.7228 7.92559C32.4903 7.62552 32.2161 7.47652 31.8988 7.47652H27.2105C26.881 7.47652 26.6006 7.62552 26.368 7.92559C26.1478 8.22366 26.0385 8.57738 26.0385 8.98873C26.0385 9.41395 26.1478 9.77559 26.368 10.0737C26.6006 10.3578 26.881 10.4989 27.2105 10.4989H31.8988ZM40.1018 16.5477C39.7722 16.5477 39.4918 16.4066 39.2593 16.1224C39.039 15.8224 38.9297 15.4607 38.9297 15.0355V5.98817C38.9297 5.56293 39.039 5.20127 39.2593 4.90121C39.4918 4.60116 39.7722 4.45213 40.1018 4.45213H42.4459C42.7632 4.45213 43.0373 4.60116 43.2699 4.90121C43.5009 5.20127 43.6164 5.55498 43.6164 5.96432C43.6164 6.38956 43.7258 6.75122 43.946 7.05128C44.1785 7.33545 44.4589 7.47652 44.7885 7.47652C45.1058 7.47652 45.3799 7.33545 45.6125 7.05128C45.845 6.75122 45.9605 6.38956 45.9605 5.96432V5.98817C45.9605 5.56293 46.0699 5.20127 46.2901 4.90121C46.5227 4.60116 46.803 4.45213 47.1326 4.45213H50.6488C51.2957 4.45213 51.8455 4.75218 52.2968 5.35031C52.7604 5.94843 52.9914 6.65783 52.9914 7.47652V8.98873C52.9914 9.41395 52.8759 9.77559 52.6449 10.0737C52.4123 10.3578 52.1382 10.4989 51.8209 10.4989H42.4459C42.1163 10.4989 41.836 10.6479 41.6034 10.948C41.3832 11.2481 41.2738 11.6018 41.2738 12.0111V15.0355C41.2738 15.4607 41.1583 15.8224 40.9258 16.1224C40.6932 16.4066 40.419 16.5477 40.1018 16.5477ZM56.5076 16.5477C55.8484 16.5477 55.2924 16.2556 54.8412 15.6734C54.3899 15.0752 54.1635 14.3579 54.1635 13.5233V2.96378C54.1635 2.53853 54.2728 2.17688 54.493 1.87682C54.7256 1.57677 55.006 1.42773 55.3355 1.42773H57.6797C57.997 1.42773 58.2711 1.57677 58.5037 1.87682C58.7363 2.17688 58.8518 2.53058 58.8518 2.93993V10.4989C58.8518 10.9242 58.7363 11.2858 58.5037 11.5859C58.2711 11.87 57.997 12.0111 57.6797 12.0111H57.0944C56.9235 12.0111 56.7818 12.0906 56.6724 12.2476C56.563 12.3887 56.5076 12.5635 56.5076 12.7682C56.5076 12.9888 56.563 13.1696 56.6724 13.3107C56.7818 13.4518 56.9235 13.5233 57.0944 13.5233H57.6797C57.997 13.5233 58.2711 13.6724 58.5037 13.9724C58.7363 14.2724 58.8518 14.6262 58.8518 15.0355C58.8518 15.4607 58.7363 15.8224 58.5037 16.1224C58.2711 16.4066 57.997 16.5477 57.6797 16.5477H56.5076ZM62.3664 16.5477C61.7072 16.5477 61.1528 16.2556 60.7015 15.6734C60.2502 15.0752 60.0238 14.3579 60.0238 13.5233V7.47652C60.0238 6.64193 60.2502 5.93253 60.7015 5.35031C61.1651 4.75218 61.7195 4.45213 62.3664 4.45213H70.5709C70.8882 4.45213 71.1623 4.31104 71.3949 4.02688C71.6275 3.72683 71.7433 3.36517 71.7433 2.93993V2.96378C71.7433 2.53853 71.8525 2.17688 72.0725 1.87682C72.3033 1.57677 72.584 1.42773 72.9133 1.42773H75.2575C75.5747 1.42773 75.849 1.57677 76.0818 1.87682C76.314 2.17688 76.4297 2.53058 76.4297 2.93993V15.0355C76.4297 15.4607 76.314 15.8224 76.0818 16.1224C75.849 16.4066 75.5747 16.5477 75.2575 16.5477H62.3664ZM72.9133 12.0111C73.2304 12.0111 73.5047 11.87 73.7375 11.5859C73.9697 11.2858 74.0854 10.9242 74.0854 10.4989V8.98873C74.0854 8.57738 73.9697 8.22366 73.7375 7.92559C73.5047 7.62552 73.2304 7.47652 72.9133 7.47652H65.8826C65.553 7.47652 65.2727 7.62552 65.0401 7.92559C64.8199 8.22366 64.7105 8.57738 64.7105 8.98873C64.7105 9.82331 64.937 10.5387 65.3882 11.1368C65.8518 11.719 66.4078 12.0111 67.0547 12.0111H72.9133Z" fill="#F5F3FF"/>
</g>
<defs>
<clipPath id="clip0_500_764">
<rect width="140" height="20" fill="white"/>
</clipPath>
</defs>
</svg>
