<svg width="12" height="12" viewBox="0 0 12 12" fill="none" xmlns="http://www.w3.org/2000/svg">
<path d="M8.85878 3.59288H3.71198C3.47375 3.59288 3.28028 3.39941 3.28028 3.16118C3.28028 2.92294 3.47375 2.72948 3.712 2.72948H8.85876C9.097 2.72948 9.29047 2.92294 9.29047 3.16118C9.29047 3.39941 9.09859 3.59288 8.85876 3.59288H8.85878ZM8.85878 5.43159H4.50503C4.26679 5.43159 4.07333 5.23813 4.07333 4.9999C4.07333 4.76166 4.26679 4.56818 4.50503 4.56818H8.85878C9.09701 4.56818 9.29048 4.76166 9.29048 4.9999C9.29048 5.23813 9.09861 5.43159 8.85878 5.43159ZM3.71198 7.19196C3.47375 7.19196 3.28028 6.99849 3.28028 6.76026C3.28028 6.52202 3.47375 6.32855 3.712 6.32855H8.85876C9.097 6.32855 9.29047 6.52202 9.29047 6.76027C9.29047 6.99852 9.097 7.19196 8.85876 7.19196H3.71198ZM1.31526 -0.00939941H10.8542C11.0924 -0.00939941 11.2859 0.184069 11.2859 0.422288V11.5649C11.2859 11.8031 11.0924 11.9966 10.8542 11.9966H4.23323C4.12929 11.9966 4.03015 11.9598 3.95183 11.8911L1.03386 9.38562C0.939529 9.30408 0.88356 9.18416 0.88356 9.05944V0.422288C0.88356 0.184069 1.07703 -0.00939941 1.31526 -0.00939941ZM10.4065 0.885976H1.76295V8.3991H4.44108C4.67931 8.3991 4.87276 8.59257 4.87276 8.83082V11.1172H10.4065V0.88596V0.885976ZM4.00937 10.8006V9.28009H2.24581L4.00937 10.8006Z" fill="#99A5A8"/>
</svg>
