<svg width="10" height="10" viewBox="0 0 10 10" fill="none" xmlns="http://www.w3.org/2000/svg">
<g clip-path="url(#clip0_9234_2109)">
<path d="M8.83125 5.56672C8.70688 5.69109 8.505 5.69109 8.38063 5.56672L5 2.18609L1.61938 5.56672C1.495 5.69109 1.29313 5.69109 1.16875 5.56672L0.718129 5.11609C0.593754 4.99172 0.593754 4.78984 0.718129 4.66547L4.77438 0.609218C4.89875 0.484843 5.10063 0.484843 5.225 0.609218L9.28125 4.66547C9.40563 4.78984 9.40563 4.99172 9.28125 5.11609L8.83125 5.56672ZM4.77438 4.43297C4.89875 4.30859 5.10063 4.30859 5.225 4.43297L9.28125 8.48922C9.40563 8.61359 9.40563 8.81547 9.28125 8.93984L8.83126 9.39109C8.70689 9.51547 8.50501 9.51547 8.38064 9.39109L5.00001 6.01047L1.61939 9.39109C1.49501 9.51547 1.29314 9.51547 1.16876 9.39109L0.718138 8.94047C0.593763 8.81609 0.593763 8.61422 0.718138 8.48984L4.77439 4.43297H4.77438Z" fill="white"/>
</g>
<defs>
<clipPath id="clip0_9234_2109">
<rect width="10" height="10" fill="white" transform="matrix(1 0 0 -1 0 10)"/>
</clipPath>
</defs>
</svg>
