<svg width="7417" height="1860" viewBox="0 0 7417 1860" fill="none" xmlns="http://www.w3.org/2000/svg">
<path d="M2078.52 475.012V342.457H1556.2V475.012H1747.57V964.852H1886.27V475.012H2078.52Z" fill="#FFFFFF"/>
<path d="M2256.88 653.216C2256.88 523.294 2349.94 464.478 2436.84 464.478C2522.87 464.478 2615.92 523.294 2615.92 653.216C2615.92 783.137 2522.87 841.075 2436.84 841.075C2349.94 841.075 2256.88 783.137 2256.88 653.216ZM2112.92 654.093C2112.92 850.732 2261.27 964.852 2436.84 964.852C2611.53 964.852 2759.89 850.732 2759.89 654.093C2759.89 456.577 2611.53 342.458 2436.84 342.458C2261.27 342.458 2112.92 456.577 2112.92 654.093Z" fill="#FFFFFF"/>
<path d="M3235.33 964.852H3408.27L3165.1 611.957L3407.39 342.457H3224.79L2997.43 604.056V342.457H2858.73V964.852H2997.43V798.061L3067.66 719.932L3235.33 964.852Z" fill="#FFFFFF"/>
<path d="M3879.57 964.852V833.175H3623.24V713.787H3854.99V591.766H3623.24V473.257H3878.7V342.457H3484.54V964.852H3879.57Z" fill="#FFFFFF"/>
<path d="M4537.09 964.852V342.457H4398.39V720.81L4164.88 342.457H3996.33V964.852H4134.16V555.774L4390.49 964.852H4537.09Z" fill="#FFFFFF"/>
<path d="M5142.41 475.012V342.457H4620.09V475.012H4811.47V964.852H4950.17V475.012H5142.41Z" fill="#FFFFFF"/>
<path d="M5586.06 964.852H5737.05L5505.3 342.457H5344.66L5110.27 964.852H5255.99L5300.76 838.442H5541.29L5586.06 964.852ZM5422.78 496.958L5497.4 712.031H5346.41L5422.78 496.958Z" fill="#FFFFFF"/>
<path d="M5813.76 342.457V964.852H6064.82C6182.45 964.852 6259.7 890.235 6259.7 788.404C6259.7 707.642 6205.28 655.849 6149.09 642.681C6200.01 626.002 6240.39 573.331 6240.39 509.248C6240.39 413.563 6169.28 342.457 6046.39 342.457H5813.76ZM5948.94 591.766V457.455H6022.68C6077.11 457.455 6104.32 483.791 6104.32 524.172C6104.32 566.309 6072.72 591.766 6024.44 591.766H5948.94ZM5948.94 851.61V705.887H6035.85C6090.28 705.887 6121.88 735.733 6121.88 778.748C6121.88 823.518 6089.4 851.61 6035.85 851.61H5948.94Z" fill="#FFFFFF"/>
<path d="M6762.88 964.852V832.297H6494.25V342.457H6355.55V964.852H6762.88Z" fill="#FFFFFF"/>
<path d="M7247.8 964.852V833.175H6991.47V713.787H7223.22V591.766H6991.47V473.257H7246.93V342.457H6852.77V964.852H7247.8Z" fill="#FFFFFF"/>
<path fill-rule="evenodd" clip-rule="evenodd" d="M622.612 1244.9C966.351 1244.9 1245.01 966.24 1245.01 622.5C1245.01 278.761 966.351 0.105469 622.612 0.105469C278.873 0.105469 0.216797 278.761 0.216797 622.5C0.216797 966.24 278.873 1244.9 622.612 1244.9ZM505.907 466.903H311.408V661.401H505.907V466.903ZM525.352 466.903H719.85V933.699H525.352V466.903ZM933.794 311.296H739.295V505.795H933.794V311.296Z" fill="#FF870F"/>
<path d="M4137.44 1827.31L4137.44 1526.2L4178.72 1526.2L4178.72 1561.7L4182.25 1561.7C4184.7 1557.14 4188.24 1551.87 4192.86 1545.88C4197.47 1539.89 4203.88 1534.66 4212.08 1530.19C4220.28 1525.63 4231.12 1523.35 4244.6 1523.35C4262.13 1523.35 4277.77 1527.82 4291.53 1536.75C4305.29 1545.69 4316.09 1558.57 4323.91 1575.39C4331.83 1592.21 4335.78 1612.46 4335.78 1636.12C4335.78 1659.79 4331.87 1680.08 4324.05 1697C4316.23 1713.82 4305.48 1726.8 4291.82 1735.92C4278.15 1744.95 4262.55 1749.47 4245.02 1749.47C4231.83 1749.47 4221.04 1747.23 4212.65 1742.77C4204.35 1738.3 4197.85 1733.07 4193.14 1727.08C4188.43 1721.1 4184.8 1715.77 4182.25 1711.12L4179.71 1711.12L4179.71 1827.31L4137.44 1827.31ZM4178.86 1635.7C4178.86 1651.09 4181.07 1664.59 4185.5 1676.19C4189.93 1687.78 4196.34 1696.86 4204.73 1703.42C4213.12 1709.88 4223.39 1713.11 4235.55 1713.11C4248.18 1713.11 4258.74 1709.74 4267.22 1702.99C4275.7 1696.15 4282.11 1686.88 4286.44 1675.19C4290.87 1663.5 4293.09 1650.33 4293.09 1635.7C4293.09 1621.25 4290.92 1608.28 4286.59 1596.77C4282.34 1585.27 4275.94 1576.2 4267.36 1569.54C4258.88 1562.89 4248.27 1559.56 4235.55 1559.56C4223.3 1559.56 4212.93 1562.75 4204.45 1569.12C4196.06 1575.48 4189.7 1584.37 4185.36 1595.78C4181.03 1607.18 4178.86 1620.49 4178.86 1635.7Z" fill="#FFFFFF"/>
<path d="M4454.71 1749.61C4434.35 1749.61 4416.58 1744.9 4401.41 1735.49C4386.23 1726.09 4374.45 1712.92 4366.07 1696C4357.68 1679.08 4353.48 1659.31 4353.48 1636.69C4353.48 1613.98 4357.68 1594.11 4366.07 1577.1C4374.45 1560.09 4386.23 1546.88 4401.41 1537.47C4416.58 1528.06 4434.35 1523.35 4454.71 1523.35C4475.06 1523.35 4492.83 1528.06 4508 1537.47C4523.18 1546.88 4534.96 1560.09 4543.35 1577.1C4551.73 1594.11 4555.93 1613.98 4555.93 1636.69C4555.93 1659.31 4551.73 1679.08 4543.35 1696C4534.96 1712.92 4523.18 1726.09 4508 1735.49C4492.83 1744.9 4475.06 1749.61 4454.71 1749.61ZM4454.85 1713.82C4468.04 1713.82 4478.98 1710.31 4487.65 1703.27C4496.32 1696.24 4502.73 1686.88 4506.87 1675.19C4511.11 1663.5 4513.23 1650.62 4513.23 1636.55C4513.23 1622.58 4511.11 1609.75 4506.87 1598.06C4502.73 1586.27 4496.32 1576.81 4487.65 1569.69C4478.98 1562.56 4468.04 1558.99 4454.85 1558.99C4441.56 1558.99 4430.53 1562.56 4421.77 1569.69C4413.1 1576.81 4406.64 1586.27 4402.4 1598.06C4398.25 1609.75 4396.18 1622.58 4396.18 1636.55C4396.18 1650.62 4398.25 1663.5 4402.4 1675.19C4406.64 1686.88 4413.1 1696.24 4421.77 1703.27C4430.53 1710.31 4441.56 1713.82 4454.85 1713.82Z" fill="#FFFFFF"/>
<path d="M4623.67 1745.19L4559.77 1526.2L4603.46 1526.2L4646.01 1687.02L4648.13 1687.02L4690.83 1526.2L4734.51 1526.2L4776.92 1686.31L4779.04 1686.31L4821.31 1526.2L4865 1526.2L4801.24 1745.19L4758.12 1745.19L4714.01 1587.08L4710.76 1587.08L4666.65 1745.19L4623.67 1745.19Z" fill="#FFFFFF"/>
<path d="M4972.19 1749.61C4950.79 1749.61 4932.37 1745 4916.91 1735.78C4901.55 1726.47 4889.67 1713.4 4881.28 1696.57C4872.99 1679.65 4868.84 1659.84 4868.84 1637.12C4868.84 1614.69 4872.99 1594.92 4881.28 1577.81C4889.67 1560.7 4901.36 1547.35 4916.34 1537.75C4931.42 1528.15 4949.05 1523.35 4969.22 1523.35C4981.47 1523.35 4993.35 1525.39 5004.84 1529.48C5016.34 1533.57 5026.66 1539.98 5035.8 1548.73C5044.95 1557.47 5052.16 1568.83 5057.43 1582.8C5062.71 1596.68 5065.35 1613.55 5065.35 1633.41L5065.35 1648.53L4892.73 1648.53L4892.73 1616.59L5023.93 1616.59C5023.93 1605.38 5021.67 1595.44 5017.14 1586.79C5012.62 1578.05 5006.26 1571.16 4998.06 1566.12C4989.95 1561.08 4980.43 1558.57 4969.5 1558.57C4957.62 1558.57 4947.26 1561.51 4938.4 1567.41C4929.63 1573.2 4922.85 1580.81 4918.04 1590.22C4913.33 1599.53 4910.97 1609.65 4910.97 1620.58L4910.97 1645.53C4910.97 1660.17 4913.52 1672.62 4918.61 1682.89C4923.79 1693.15 4931 1700.99 4940.24 1706.41C4949.47 1711.73 4960.26 1714.39 4972.61 1714.39C4980.62 1714.39 4987.93 1713.25 4994.52 1710.97C5001.12 1708.6 5006.82 1705.08 5011.63 1700.42C5016.44 1695.77 5020.11 1690.01 5022.66 1683.17L5062.66 1690.44C5059.46 1702.32 5053.71 1712.73 5045.42 1721.67C5037.22 1730.5 5026.9 1737.4 5014.46 1742.34C5002.11 1747.19 4988.02 1749.61 4972.19 1749.61Z" fill="#FFFFFF"/>
<path d="M5092.35 1745.19L5092.35 1526.2L5133.2 1526.2L5133.2 1560.99L5135.46 1560.99C5139.42 1549.2 5146.4 1539.94 5156.39 1533.19C5166.47 1526.35 5177.88 1522.92 5190.6 1522.92C5193.24 1522.92 5196.35 1523.02 5199.93 1523.21C5203.61 1523.4 5206.48 1523.64 5208.55 1523.92L5208.55 1564.7C5206.86 1564.22 5203.84 1563.7 5199.51 1563.13C5195.17 1562.46 5190.84 1562.13 5186.5 1562.13C5176.51 1562.13 5167.6 1564.27 5159.78 1568.55C5152.05 1572.73 5145.93 1578.57 5141.4 1586.08C5136.88 1593.5 5134.62 1601.95 5134.62 1611.46L5134.62 1745.19L5092.35 1745.19Z" fill="#FFFFFF"/>
<path d="M5311.04 1749.61C5289.65 1749.61 5271.22 1745 5255.77 1735.78C5240.4 1726.47 5228.53 1713.4 5220.14 1696.57C5211.85 1679.65 5207.7 1659.84 5207.7 1637.12C5207.7 1614.69 5211.85 1594.92 5220.14 1577.81C5228.53 1560.7 5240.21 1547.35 5255.2 1537.75C5270.28 1528.15 5287.9 1523.35 5308.07 1523.35C5320.33 1523.35 5332.2 1525.39 5343.7 1529.48C5355.2 1533.57 5365.52 1539.98 5374.66 1548.73C5383.8 1557.47 5391.01 1568.83 5396.29 1582.8C5401.57 1596.68 5404.21 1613.55 5404.21 1633.41L5404.21 1648.53L5231.59 1648.53L5231.59 1616.59L5362.78 1616.59C5362.78 1605.38 5360.52 1595.44 5356 1586.79C5351.47 1578.05 5345.11 1571.16 5336.91 1566.12C5328.81 1561.08 5319.29 1558.57 5308.36 1558.57C5296.48 1558.57 5286.11 1561.51 5277.25 1567.41C5268.49 1573.2 5261.7 1580.81 5256.9 1590.22C5252.18 1599.53 5249.83 1609.65 5249.83 1620.58L5249.83 1645.53C5249.83 1660.17 5252.37 1672.62 5257.46 1682.89C5262.65 1693.15 5269.86 1700.99 5279.09 1706.41C5288.33 1711.73 5299.12 1714.39 5311.47 1714.39C5319.48 1714.39 5326.78 1713.25 5333.38 1710.97C5339.98 1708.6 5345.68 1705.08 5350.49 1700.42C5355.29 1695.77 5358.97 1690.01 5361.51 1683.17L5401.52 1690.44C5398.32 1702.32 5392.57 1712.73 5384.27 1721.67C5376.07 1730.5 5365.75 1737.4 5353.31 1742.34C5340.97 1747.19 5326.88 1749.61 5311.04 1749.61Z" fill="#FFFFFF"/>
<path d="M5512.49 1749.47C5494.96 1749.47 5479.32 1744.95 5465.56 1735.92C5451.89 1726.8 5441.15 1713.82 5433.32 1697C5425.59 1680.08 5421.73 1659.79 5421.73 1636.12C5421.73 1612.46 5425.64 1592.21 5433.46 1575.39C5441.38 1558.57 5452.22 1545.69 5465.98 1536.75C5479.74 1527.82 5495.34 1523.35 5512.77 1523.35C5526.25 1523.35 5537.09 1525.63 5545.29 1530.19C5553.58 1534.66 5559.99 1539.89 5564.52 1545.88C5569.13 1551.87 5572.72 1557.14 5575.26 1561.7L5577.81 1561.7L5577.81 1453.21L5620.08 1453.21L5620.08 1745.19L5578.79 1745.19L5578.79 1711.12L5575.26 1711.12C5572.72 1715.77 5569.04 1721.1 5564.23 1727.08C5559.52 1733.07 5553.02 1738.3 5544.72 1742.77C5536.43 1747.23 5525.69 1749.47 5512.49 1749.47ZM5521.82 1713.11C5533.98 1713.11 5544.25 1709.88 5552.64 1703.42C5561.12 1696.86 5567.53 1687.78 5571.87 1676.19C5576.3 1664.59 5578.51 1651.09 5578.51 1635.7C5578.51 1620.49 5576.34 1607.18 5572.01 1595.78C5567.67 1584.37 5561.31 1575.48 5552.92 1569.12C5544.54 1562.75 5534.17 1559.56 5521.82 1559.56C5509.1 1559.56 5498.5 1562.89 5490.01 1569.54C5481.53 1576.2 5475.12 1585.27 5470.79 1596.77C5466.55 1608.28 5464.42 1621.25 5464.42 1635.7C5464.42 1650.33 5466.59 1663.5 5470.93 1675.19C5475.26 1686.88 5481.67 1696.15 5490.15 1702.99C5498.73 1709.74 5509.29 1713.11 5521.82 1713.11Z" fill="#FFFFFF"/>
<path d="M5749.35 1745.19L5749.35 1453.21L5791.62 1453.21L5791.62 1561.7L5794.16 1561.7C5796.61 1557.14 5800.15 1551.87 5804.76 1545.88C5809.38 1539.89 5815.79 1534.66 5823.99 1530.19C5832.19 1525.63 5843.03 1523.35 5856.51 1523.35C5874.04 1523.35 5889.68 1527.82 5903.44 1536.75C5917.2 1545.69 5927.99 1558.57 5935.82 1575.39C5943.73 1592.21 5947.69 1612.46 5947.69 1636.12C5947.69 1659.79 5943.78 1680.08 5935.96 1697C5928.14 1713.82 5917.39 1726.8 5903.73 1735.92C5890.06 1744.95 5874.46 1749.47 5856.93 1749.47C5843.74 1749.47 5832.94 1747.23 5824.56 1742.77C5816.26 1738.3 5809.76 1733.07 5805.05 1727.08C5800.34 1721.1 5796.71 1715.77 5794.16 1711.12L5790.63 1711.12L5790.63 1745.19L5749.35 1745.19ZM5790.77 1635.7C5790.77 1651.09 5792.98 1664.59 5797.41 1676.19C5801.84 1687.78 5808.25 1696.86 5816.64 1703.42C5825.03 1709.88 5835.3 1713.11 5847.46 1713.11C5860.09 1713.11 5870.64 1709.74 5879.13 1702.99C5887.61 1696.15 5894.02 1686.88 5898.35 1675.19C5902.78 1663.5 5905 1650.33 5905 1635.7C5905 1621.25 5902.83 1608.28 5898.49 1596.77C5894.25 1585.27 5887.84 1576.2 5879.27 1569.54C5870.79 1562.89 5860.18 1559.56 5847.46 1559.56C5835.21 1559.56 5824.84 1562.75 5816.36 1569.12C5807.97 1575.48 5801.61 1584.37 5797.27 1595.78C5792.94 1607.18 5790.77 1620.49 5790.77 1635.7Z" fill="#FFFFFF"/>
<path d="M5994.59 1827.31C5988.27 1827.31 5982.52 1826.79 5977.34 1825.74C5972.15 1824.79 5968.29 1823.75 5965.75 1822.6L5975.92 1787.68C5983.65 1789.77 5990.53 1790.67 5996.56 1790.38C6002.6 1790.1 6007.92 1787.82 6012.54 1783.54C6017.25 1779.26 6021.4 1772.28 6024.98 1762.58L6030.21 1748.04L5950.76 1526.2L5996 1526.2L6050.99 1696.15L6053.26 1696.15L6108.25 1526.2L6153.63 1526.2L6064.14 1774.42C6059.99 1785.82 6054.72 1795.47 6048.31 1803.36C6041.9 1811.34 6034.26 1817.33 6025.4 1821.32C6016.55 1825.31 6006.27 1827.31 5994.59 1827.31Z" fill="#FFFFFF"/>
<path d="M6941.86 1708.73L7038.49 1543.47L7104.78 1540.67C7082.37 1571.79 7060.9 1603.54 7040.36 1635.91L7041.29 1636.84C7049.38 1626.57 7058.41 1615.52 7068.37 1603.69C7078.33 1591.87 7088.75 1580.97 7099.65 1571.02C7110.85 1560.74 7122.21 1552.19 7133.73 1545.34C7145.55 1538.49 7157.22 1535.07 7168.74 1535.07C7180.57 1535.07 7190.37 1538.18 7198.15 1544.41C7206.24 1550.32 7210.29 1559.5 7210.29 1571.95C7210.29 1582.22 7207.02 1592.8 7200.49 1603.69C7194.26 1614.59 7187.26 1625.32 7179.48 1635.91C7171.7 1646.18 7164.54 1656.14 7158 1665.78C7151.78 1675.12 7148.67 1683.37 7148.67 1690.53C7148.67 1693.64 7149.44 1696.44 7151 1698.93C7152.87 1701.11 7155.67 1702.2 7159.4 1702.2C7166.25 1702.2 7174.03 1699.09 7182.75 1692.86C7191.46 1686.32 7200.49 1678.39 7209.82 1669.05C7216.98 1661.89 7224.14 1654.27 7231.3 1646.18C7238.46 1637.77 7245.15 1629.84 7251.37 1622.37C7257.6 1614.59 7263.2 1607.58 7268.18 1601.36C7273.16 1594.82 7277.05 1589.69 7279.85 1585.95L7284.05 1588.29C7273.47 1602.29 7262.11 1616.77 7249.97 1631.7C7238.14 1646.64 7226.16 1660.34 7214.02 1672.79C7201.26 1685.86 7188.81 1696.13 7176.68 1703.6C7164.85 1710.76 7152.71 1714.34 7140.26 1714.34C7126.26 1714.34 7115.68 1710.29 7108.52 1702.2C7101.67 1693.79 7098.25 1683.06 7098.25 1669.99C7098.25 1658.78 7101.2 1648.2 7107.12 1638.24C7113.34 1627.97 7120.19 1618.48 7127.66 1609.76C7135.13 1600.74 7141.82 1592.49 7147.73 1585.02C7153.96 1577.55 7157.07 1570.55 7157.07 1564.01C7157.07 1555.3 7152.87 1550.94 7144.46 1550.94C7138.86 1550.94 7132.02 1553.9 7123.92 1559.81C7115.83 1565.41 7107.12 1572.88 7097.78 1582.22C7088.44 1591.56 7078.95 1601.98 7069.3 1613.5C7059.65 1625.01 7050.47 1636.53 7041.76 1648.04C7033.36 1659.56 7025.89 1670.45 7019.35 1680.72C7013.13 1690.99 7008.46 1699.4 7005.35 1705.93L6941.86 1708.73Z" fill="url(#paint0_linear_1123_20)"/>
<path d="M6720.5 1665.32C6720.5 1649.13 6724.54 1633.26 6732.63 1617.7C6741.04 1602.14 6751.77 1588.29 6764.85 1576.15C6778.23 1563.7 6793.17 1553.74 6809.66 1546.27C6826.16 1538.8 6842.81 1535.07 6859.61 1535.07C6869.57 1535.07 6878.29 1536.94 6885.76 1540.67C6893.54 1544.09 6900.07 1551.41 6905.37 1562.61L6916.57 1540.67L6981.46 1537.87C6965.28 1565.57 6949.09 1592.8 6932.91 1619.57C6917.04 1646.02 6901.16 1672.79 6885.29 1699.86C6899.61 1694.88 6913.3 1688.35 6926.37 1680.26C6939.76 1671.85 6952.36 1662.67 6964.19 1652.71C6976.01 1642.44 6987.22 1631.55 6997.8 1620.03C7008.69 1608.52 7018.81 1597 7028.14 1585.49L7031.41 1588.76C7022.08 1600.58 7011.65 1612.56 7000.13 1624.7C6988.62 1636.84 6976.48 1648.2 6963.72 1658.78C6950.96 1669.36 6937.58 1678.86 6923.57 1687.26C6909.88 1695.66 6895.72 1702.04 6881.09 1706.4C6869.26 1730.36 6855.26 1751.84 6839.07 1770.82C6822.89 1789.81 6805.31 1805.84 6786.32 1818.91C6767.65 1832.29 6748.04 1842.41 6727.5 1849.25C6706.96 1856.41 6686.26 1859.99 6665.41 1859.99C6652.65 1859.99 6640.04 1858.74 6627.6 1856.25C6615.15 1853.76 6604.1 1849.72 6594.45 1844.12C6584.49 1838.83 6576.55 1831.82 6570.64 1823.11C6564.42 1814.71 6561.3 1804.28 6561.3 1791.83C6561.3 1783.74 6563.02 1776.11 6566.44 1768.96C6569.55 1762.11 6574.53 1756.04 6581.38 1750.75C6588.22 1745.46 6597.09 1741.26 6607.99 1738.14C6618.88 1735.34 6631.95 1733.94 6647.2 1733.94H6677.08V1739.54H6666.81C6651.87 1739.54 6639.89 1743.9 6630.86 1752.62C6621.84 1761.33 6617.32 1774.87 6617.32 1793.23C6617.32 1801.63 6618.57 1809.57 6621.06 1817.04C6623.55 1824.51 6627.28 1830.89 6632.26 1836.18C6636.93 1841.78 6642.69 1846.14 6649.54 1849.25C6656.07 1852.68 6663.54 1854.39 6671.94 1854.39C6690.93 1854.39 6709.14 1847.38 6726.57 1833.38C6743.68 1819.37 6759.87 1801.17 6775.12 1778.76L6846.54 1674.65L6845.61 1673.72C6834.72 1686.48 6822.11 1696.44 6807.8 1703.6C6793.79 1710.76 6779.32 1714.34 6764.38 1714.34C6750.37 1714.34 6739.48 1709.82 6731.7 1700.8C6724.23 1691.46 6720.5 1679.63 6720.5 1665.32ZM6781.19 1672.32C6781.19 1678.23 6782.12 1683.68 6783.99 1688.66C6786.17 1693.33 6790.83 1695.66 6797.99 1695.66C6804.53 1695.66 6811.37 1693.48 6818.53 1689.13C6825.69 1684.46 6832.69 1678.54 6839.54 1671.39C6846.39 1663.92 6852.92 1655.51 6859.15 1646.18C6865.37 1636.84 6870.66 1627.35 6875.02 1617.7C6879.69 1607.74 6883.42 1598.25 6886.22 1589.22C6889.03 1579.89 6890.43 1571.64 6890.43 1564.48C6890.43 1557.01 6888.4 1551.25 6884.36 1547.21C6880.62 1542.85 6875.64 1540.67 6869.42 1540.67C6862.88 1540.67 6856.19 1542.85 6849.34 1547.21C6842.5 1551.56 6835.81 1557.32 6829.27 1564.48C6822.73 1571.33 6816.51 1579.42 6810.6 1588.76C6804.68 1597.78 6799.55 1607.27 6795.19 1617.23C6790.83 1626.88 6787.41 1636.53 6784.92 1646.18C6782.43 1655.51 6781.19 1664.23 6781.19 1672.32Z" fill="url(#paint1_linear_1123_20)"/>
<path d="M6725.55 1540.67C6715.59 1556.54 6705.78 1571.94 6696.13 1586.88C6686.49 1601.82 6677.93 1615.83 6670.46 1628.9C6662.99 1641.66 6656.92 1653.02 6652.25 1662.98C6647.89 1672.94 6645.72 1680.87 6645.72 1686.79C6645.72 1691.14 6646.49 1694.88 6648.05 1697.99C6649.61 1700.79 6652.41 1702.19 6656.45 1702.19C6662.68 1702.19 6669.37 1700.01 6676.53 1695.66C6684 1690.99 6691.62 1685.23 6699.4 1678.38C6707.18 1671.23 6714.96 1663.29 6722.74 1654.58C6730.53 1645.55 6737.84 1636.84 6744.69 1628.43C6751.53 1619.72 6757.6 1611.63 6762.89 1604.16C6768.49 1596.38 6773.01 1590.15 6776.43 1585.48L6780.17 1586.88C6772.7 1597.47 6763.36 1610.38 6752.16 1625.63C6740.95 1640.57 6728.35 1655.2 6714.34 1669.51C6700.02 1684.14 6686.8 1695.35 6674.66 1703.13C6662.52 1710.6 6648.98 1714.33 6634.04 1714.33C6621.28 1714.33 6611.64 1710.75 6605.1 1703.59C6598.56 1696.12 6595.3 1685.85 6595.3 1672.78C6595.3 1658.78 6601.21 1641.35 6613.04 1620.5C6625.17 1599.33 6640.42 1573.35 6658.79 1542.53L6725.55 1540.67ZM6701.74 1467.84C6701.74 1458.81 6704.85 1451.19 6711.07 1444.96C6717.61 1438.43 6725.39 1435.16 6734.42 1435.16C6743.44 1435.16 6751.07 1438.43 6757.29 1444.96C6763.83 1451.19 6767.09 1458.81 6767.09 1467.84C6767.09 1476.86 6763.83 1484.65 6757.29 1491.18C6751.07 1497.41 6743.44 1500.52 6734.42 1500.52C6725.39 1500.52 6717.61 1497.41 6711.07 1491.18C6704.85 1484.65 6701.74 1476.86 6701.74 1467.84Z" fill="url(#paint2_linear_1123_20)"/>
<path d="M6657.3 1421.62C6657.3 1409.79 6654.34 1399.83 6648.43 1391.74C6642.82 1383.34 6633.64 1379.13 6620.88 1379.13C6609.06 1379.13 6599.41 1383.65 6591.94 1392.67C6584.47 1401.39 6578.56 1413.37 6574.2 1428.62C6569.84 1443.87 6566.73 1461.76 6564.86 1482.31C6563.31 1502.54 6562.53 1524.32 6562.53 1547.66C6562.53 1574.12 6558.79 1597.77 6551.32 1618.62C6544.17 1639.48 6533.43 1657.21 6519.11 1671.84C6505.11 1686.16 6487.68 1697.21 6466.83 1704.99C6446.28 1712.46 6422.63 1716.19 6395.87 1716.19C6381.24 1716.19 6367.23 1714.33 6353.85 1710.59C6340.47 1706.86 6328.64 1701.41 6318.37 1694.25C6308.1 1687.09 6299.85 1678.22 6293.63 1667.64C6287.4 1657.06 6284.29 1644.77 6284.29 1630.76C6284.29 1624.85 6284.91 1618.78 6286.16 1612.55C6287.71 1606.33 6290.05 1600.73 6293.16 1595.75C6296.27 1590.46 6300.32 1586.26 6305.3 1583.14C6310.28 1579.72 6316.19 1578.01 6323.04 1578.01C6331.75 1578.01 6338.91 1580.81 6344.51 1586.41C6350.43 1591.7 6353.38 1598.55 6353.38 1606.95C6353.38 1615.35 6351.05 1622.51 6346.38 1628.43C6341.71 1634.03 6335.02 1637.14 6326.31 1637.76C6325.37 1641.19 6324.75 1644.14 6324.44 1646.63C6324.44 1649.12 6324.44 1651.77 6324.44 1654.57C6324.44 1660.48 6325.84 1666.86 6328.64 1673.71C6331.75 1680.25 6336.11 1686.31 6341.71 1691.92C6347.63 1697.52 6354.94 1702.19 6363.65 1705.92C6372.37 1709.35 6382.48 1710.9 6394 1710.59C6410.18 1710.28 6424.03 1707.48 6435.55 1702.19C6447.06 1696.9 6456.71 1689.89 6464.49 1681.18C6472.58 1672.15 6478.96 1661.88 6483.63 1650.37C6488.61 1638.54 6492.35 1626.25 6494.84 1613.49C6497.64 1600.42 6499.5 1587.19 6500.44 1573.81C6501.37 1560.11 6501.84 1547.04 6501.84 1534.59C6501.84 1512.49 6504.33 1491.64 6509.31 1472.03C6514.6 1452.12 6522.69 1434.84 6533.58 1420.22C6544.79 1405.28 6558.95 1393.45 6576.07 1384.74C6593.5 1376.02 6614.5 1371.66 6639.09 1371.66C6647.49 1371.66 6655.9 1372.6 6664.3 1374.47C6673.01 1376.33 6680.79 1379.44 6687.64 1383.8C6694.8 1387.85 6700.56 1393.29 6704.91 1400.14C6709.27 1406.68 6711.45 1414.77 6711.45 1424.42C6711.45 1434.38 6708.8 1442.47 6703.51 1448.69C6698.53 1454.61 6692.15 1459.27 6684.37 1462.7C6676.59 1465.81 6668.19 1467.99 6659.16 1469.23C6650.14 1470.17 6641.74 1470.63 6633.95 1470.63C6641.42 1464.1 6647.18 1456.78 6651.23 1448.69C6655.27 1440.6 6657.3 1431.58 6657.3 1421.62Z" fill="url(#paint3_linear_1123_20)"/>
<defs>
<linearGradient id="paint0_linear_1123_20" x1="7043.9" y1="1607.42" x2="7283.19" y2="1642.87" gradientUnits="userSpaceOnUse">
<stop stop-color="#E14603"/>
<stop offset="1" stop-color="#EB8E2E"/>
</linearGradient>
<linearGradient id="paint1_linear_1123_20" x1="6701.49" y1="1666.21" x2="7033.27" y2="1703.46" gradientUnits="userSpaceOnUse">
<stop stop-color="#E14603"/>
<stop offset="1" stop-color="#EB8E2E"/>
</linearGradient>
<linearGradient id="paint2_linear_1123_20" x1="6650.42" y1="1547.84" x2="6782.19" y2="1554.61" gradientUnits="userSpaceOnUse">
<stop stop-color="#E14603"/>
<stop offset="1" stop-color="#EB8E2E"/>
</linearGradient>
<linearGradient id="paint3_linear_1123_20" x1="6411.67" y1="1510.72" x2="6714.14" y2="1539.82" gradientUnits="userSpaceOnUse">
<stop stop-color="#E14603"/>
<stop offset="1" stop-color="#EB8E2E"/>
</linearGradient>
</defs>
</svg>
