<svg width="32" height="32" viewBox="0 0 32 32" fill="none" xmlns="http://www.w3.org/2000/svg">
<path d="M21.8 15.2V14.4C21.8 11.383 21.8 9.87452 20.8627 8.93726C19.9255 8 18.417 8 15.4 8C12.383 8 10.8745 8 9.93726 8.93726C9 9.87452 9 11.383 9 14.4V17.6C9 20.617 9 22.1255 9.93726 23.0627C10.8745 24 12.383 24 15.4 24" stroke="white" stroke-width="1.3" stroke-linecap="round" stroke-linejoin="round"/>
<path d="M23.4 24L22.0286 22.6285M22.4857 20.3428C22.4857 21.8577 21.2577 23.0857 19.7429 23.0857C18.228 23.0857 17 21.8577 17 20.3428C17 18.828 18.228 17.6 19.7429 17.6C21.2577 17.6 22.4857 18.828 22.4857 20.3428Z" stroke="white" stroke-width="1.3" stroke-linecap="round"/>
<path d="M12.1992 12H18.5992M12.1992 15.2H15.3992" stroke="white" stroke-width="1.3" stroke-linecap="round" stroke-linejoin="round"/>
</svg>
