<svg width="24" height="22" viewBox="0 0 24 22" fill="none" xmlns="http://www.w3.org/2000/svg">
<path d="M19.3817 1.80982C19.4084 1.94677 19.4218 2.08585 19.4217 2.22524V2.58115C20.2221 2.71141 20.949 3.11362 21.4734 3.71629C21.9978 4.31896 22.2856 5.08306 22.2857 5.87277V8.16729C23.272 8.41476 24 9.28507 24 10.3217V14.2144C23.9999 14.7076 23.8315 15.1868 23.5212 15.5768C23.211 15.9667 22.7764 16.2453 22.2857 16.3688V18.6633C22.2857 19.5483 21.9245 20.397 21.2815 21.0227C20.6385 21.6485 19.7665 22 18.8571 22H3.42857C2.51926 22 1.64719 21.6485 1.00421 21.0227C0.361224 20.397 0 19.5483 0 18.6633V5.87277C-1.81625e-06 4.98899 0.36028 4.1413 1.00178 3.51575C1.64328 2.89019 2.51359 2.53787 3.42171 2.5361V2.49884L16.7097 0.0391642C17.0046 -0.0154164 17.3077 -0.0129252 17.6016 0.0464953C17.8956 0.105916 18.1746 0.221102 18.4227 0.385475C18.6709 0.549849 18.8834 0.76019 19.048 1.00449C19.2127 1.24878 19.3263 1.52225 19.3823 1.80927L19.3817 1.80982ZM18.8571 4.20444H3.42857C2.99131 4.20441 2.57056 4.367 2.25242 4.65894C1.93428 4.95087 1.7428 5.35009 1.71714 5.7749L1.71429 5.87277V18.6633C1.71426 19.0889 1.88133 19.4983 2.1813 19.808C2.48128 20.1176 2.89149 20.3039 3.328 20.3289L3.42857 20.3317H18.8571C19.2944 20.3317 19.7152 20.1691 20.0333 19.8772C20.3514 19.5852 20.5429 19.186 20.5686 18.7612L20.5714 18.6633V16.4389H15.7143C14.5776 16.4389 13.4876 15.9995 12.6838 15.2173C11.8801 14.4351 11.4286 13.3742 11.4286 12.2681C11.4286 11.1619 11.8801 10.101 12.6838 9.31883C13.4876 8.53664 14.5776 8.09722 15.7143 8.09722H20.5714V5.87277C20.5715 5.44723 20.4044 5.03776 20.1044 4.72815C19.8044 4.41854 19.3942 4.23218 18.9577 4.20722L18.8571 4.20444ZM21.7143 9.76555H15.7143C15.0428 9.76556 14.398 10.0212 13.9176 10.4778C13.4372 10.9344 13.1594 11.5558 13.1436 12.2091C13.1278 12.8624 13.3752 13.4958 13.8329 13.9739C14.2907 14.4521 14.9224 14.737 15.5931 14.7678L15.7143 14.7706H21.7143C21.8542 14.7705 21.9893 14.7205 22.0939 14.63C22.1985 14.5395 22.2653 14.4148 22.2817 14.2795L22.2857 14.2144V10.3217C22.2857 10.1855 22.2343 10.054 22.1413 9.9522C22.0483 9.85041 21.9201 9.78538 21.7811 9.76944L21.7143 9.76555ZM15.7143 11.4339C15.9416 11.4339 16.1596 11.5218 16.3204 11.6782C16.4811 11.8346 16.5714 12.0468 16.5714 12.2681C16.5714 12.4893 16.4811 12.7015 16.3204 12.8579C16.1596 13.0143 15.9416 13.1022 15.7143 13.1022C15.487 13.1022 15.2689 13.0143 15.1082 12.8579C14.9474 12.7015 14.8571 12.4893 14.8571 12.2681C14.8571 12.0468 14.9474 11.8346 15.1082 11.6782C15.2689 11.5218 15.487 11.4339 15.7143 11.4339ZM17.096 1.67024L17.0297 1.67914L12.3971 2.53555H17.7069V2.1991L17.6977 2.12124C17.6715 1.98749 17.5957 1.86775 17.4848 1.78473C17.3739 1.7017 17.2356 1.66116 17.096 1.67079V1.67024Z" fill="white"/>
</svg>
